<svg width="24" height="24" viewBox="0 0 24 24" fill="none" xmlns="http://www.w3.org/2000/svg">
<path d="M19.8757 14.1259C19.4166 11.91 17.6569 10.1582 15.4094 9.70361C15.5051 10.0256 15.5625 10.3665 15.5625 10.7169C15.5625 12.6013 14.0227 14.1259 12.1195 14.1259H4.93724L4 20.9629H14.2522C17.4274 20.9629 20 18.4156 20 15.2717C19.9904 14.874 19.9522 14.4952 19.8757 14.1259Z" fill="#5E6D84"/>
<path d="M16.3687 5.01109C16.3213 4.78624 16.255 4.56138 16.1793 4.34631V4.33653C15.734 3.1927 14.7772 2.31284 13.6026 2C13.6121 2.08799 13.6121 2.17597 13.6121 2.26396C13.6121 3.77928 12.4184 5.00132 10.9596 5.00132H6.39358L5.77783 9.7037H12.6553C13.5647 9.7037 14.3983 9.37131 15.052 8.82384C15.9045 8.11017 16.4445 7.01523 16.4445 5.79319C16.4445 5.51946 16.4256 5.2555 16.3687 5.01109Z" fill="#5E6D84"/>
</svg>
