<svg width="24" height="24" viewBox="0 0 24 24" fill="none" xmlns="http://www.w3.org/2000/svg">
<path d="M15.5 6.9369C16.5645 7.55111 17.4484 8.43485 18.0628 9.4992C18.6772 10.5635 19.0004 11.7709 19 12.9999V20.9999H14.83C14.6234 21.5854 14.2403 22.0925 13.7334 22.4511C13.2265 22.8098 12.6209 23.0023 12 23.0023C11.3791 23.0023 10.7735 22.8098 10.2666 22.4511C9.75974 22.0925 9.3766 21.5854 9.17 20.9999H5V12.9999C4.99955 11.7709 5.3228 10.5635 5.93721 9.4992C6.55163 8.43485 7.43554 7.55111 8.5 6.9369C8.33569 6.64177 8.20967 6.3269 8.125 5.9999H5V3.9999H8.126C8.34844 3.14166 8.84957 2.38158 9.55074 1.83897C10.2519 1.29636 11.1134 1.00195 12 1.00195C12.8866 1.00195 13.7481 1.29636 14.4493 1.83897C15.1504 2.38158 15.6516 3.14166 15.874 3.9999H19V5.9999H15.874C15.789 6.3299 15.662 6.6449 15.501 6.9369H15.5ZM12 13.9999C11.7348 13.9999 11.4804 14.1053 11.2929 14.2928C11.1054 14.4803 11 14.7347 11 14.9999V19.9999C11 20.2651 11.1054 20.5195 11.2929 20.707C11.4804 20.8945 11.7348 20.9999 12 20.9999C12.2652 20.9999 12.5196 20.8945 12.7071 20.707C12.8946 20.5195 13 20.2651 13 19.9999V14.9999C13 14.7347 12.8946 14.4803 12.7071 14.2928C12.5196 14.1053 12.2652 13.9999 12 13.9999ZM12 6.9999C12.5304 6.9999 13.0391 6.78918 13.4142 6.41411C13.7893 6.03904 14 5.53033 14 4.9999C14 4.46946 13.7893 3.96076 13.4142 3.58568C13.0391 3.21061 12.5304 2.9999 12 2.9999C11.4696 2.9999 10.9609 3.21061 10.5858 3.58568C10.2107 3.96076 10 4.46946 10 4.9999C10 5.53033 10.2107 6.03904 10.5858 6.41411C10.9609 6.78918 11.4696 6.9999 12 6.9999Z" fill="#5E6D84"/>
</svg>
