<svg width="24" height="24" viewBox="0 0 24 24" fill="none" xmlns="http://www.w3.org/2000/svg">
<path d="M13.5509 10.2566C13.9355 10.2566 14.2964 10.3565 14.6077 10.531C15.1118 10.7812 15.6823 10.9222 16.2866 10.9222C18.3374 10.9222 20 9.29734 20 7.29309C20 5.90742 19.2053 4.70319 18.0373 4.09184C16.6996 3.39496 15.1724 3 13.5509 3C8.27627 3 4.00059 7.17868 4 12.3333C4.00059 17.488 8.27627 21.6667 13.5509 21.6667C15.1724 21.6667 16.6996 21.2717 18.0373 20.5748C19.2053 19.9635 20 18.7592 20 17.3736C20 15.3693 18.3374 13.7444 16.2866 13.7444C15.6823 13.7444 15.1121 13.8854 14.6077 14.1356C14.2964 14.3104 13.9355 14.4101 13.5509 14.4101C12.3772 14.4101 11.4256 13.4804 11.425 12.3333C11.4256 11.1863 12.3772 10.2566 13.5509 10.2566Z" fill="#5E6D84"/>
</svg>
