<svg width="24" height="24" viewBox="0 0 24 24" fill="none" xmlns="http://www.w3.org/2000/svg">
<path d="M11 21C11 20.6022 10.842 20.2206 10.5607 19.9393C10.2794 19.658 9.89782 19.5 9.5 19.5C9.10218 19.5 8.72064 19.658 8.43934 19.9393C8.15804 20.2206 8 20.6022 8 21H3C2.73478 21 2.48043 20.8946 2.29289 20.7071C2.10536 20.5196 2 20.2652 2 20V4C2 3.73478 2.10536 3.48043 2.29289 3.29289C2.48043 3.10536 2.73478 3 3 3H8C8 3.39782 8.15804 3.77936 8.43934 4.06066C8.72064 4.34196 9.10218 4.5 9.5 4.5C9.89782 4.5 10.2794 4.34196 10.5607 4.06066C10.842 3.77936 11 3.39782 11 3H21C21.2652 3 21.5196 3.10536 21.7071 3.29289C21.8946 3.48043 22 3.73478 22 4V9.5C21.337 9.5 20.7011 9.76339 20.2322 10.2322C19.7634 10.7011 19.5 11.337 19.5 12C19.5 12.663 19.7634 13.2989 20.2322 13.7678C20.7011 14.2366 21.337 14.5 22 14.5V20C22 20.2652 21.8946 20.5196 21.7071 20.7071C21.5196 20.8946 21.2652 21 21 21H11ZM9.5 10.5C9.89782 10.5 10.2794 10.342 10.5607 10.0607C10.842 9.77936 11 9.39782 11 9C11 8.60218 10.842 8.22064 10.5607 7.93934C10.2794 7.65804 9.89782 7.5 9.5 7.5C9.10218 7.5 8.72064 7.65804 8.43934 7.93934C8.15804 8.22064 8 8.60218 8 9C8 9.39782 8.15804 9.77936 8.43934 10.0607C8.72064 10.342 9.10218 10.5 9.5 10.5ZM9.5 16.5C9.89782 16.5 10.2794 16.342 10.5607 16.0607C10.842 15.7794 11 15.3978 11 15C11 14.6022 10.842 14.2206 10.5607 13.9393C10.2794 13.658 9.89782 13.5 9.5 13.5C9.10218 13.5 8.72064 13.658 8.43934 13.9393C8.15804 14.2206 8 14.6022 8 15C8 15.3978 8.15804 15.7794 8.43934 16.0607C8.72064 16.342 9.10218 16.5 9.5 16.5Z" fill="#5E6D84"/>
</svg>
