<svg width="24" height="24" viewBox="0 0 24 24" fill="none" xmlns="http://www.w3.org/2000/svg">
<path d="M4.51991 5.93407L1.39291 2.80807L2.80791 1.39307L22.6069 21.1931L21.1919 22.6071L17.8819 19.2971C16.1231 20.4126 14.0826 21.0034 11.9999 21.0001C6.60791 21.0001 2.12191 17.1201 1.18091 12.0001C1.61094 9.67078 2.78254 7.54296 4.52091 5.93407H4.51991ZM14.7569 16.1721L13.2929 14.7081C12.733 14.976 12.1037 15.0636 11.4918 14.9589C10.88 14.8541 10.3157 14.5621 9.87678 14.1232C9.43785 13.6843 9.14588 13.12 9.04112 12.5081C8.93637 11.8963 9.02399 11.267 9.29191 10.7071L7.82791 9.24307C7.19162 10.2046 6.90718 11.3564 7.02274 12.5036C7.1383 13.6507 7.64676 14.7227 8.46203 15.5379C9.27729 16.3532 10.3493 16.8617 11.4964 16.9772C12.6436 17.0928 13.7954 16.8084 14.7569 16.1721ZM7.97391 3.76007C9.22091 3.27007 10.5799 3.00007 11.9999 3.00007C17.3919 3.00007 21.8779 6.88007 22.8189 12.0001C22.5125 13.6658 21.8238 15.2376 20.8069 16.5921L16.9469 12.7321C17.0616 11.9597 16.9937 11.1712 16.7488 10.4297C16.5039 9.68827 16.0888 9.01448 15.5366 8.46233C14.9845 7.91019 14.3107 7.49504 13.5693 7.25014C12.8278 7.00524 12.0393 6.93741 11.2669 7.05207L7.97391 3.76107V3.76007Z" fill="#5E6D84"/>
</svg>
