<svg width="24" height="24" viewBox="0 0 24 24" fill="none" xmlns="http://www.w3.org/2000/svg">
<path d="M12 16L15 22H9L12 16ZM9.373 16.255C8.44737 15.6833 7.73348 14.8252 7.33963 13.8111C6.94578 12.7969 6.89346 11.6819 7.19062 10.6354C7.48778 9.58876 8.1182 8.66765 8.98623 8.01177C9.85427 7.35589 10.9125 7.00103 12.0005 7.00103C13.0885 7.00103 14.1467 7.35589 15.0148 8.01177C15.8828 8.66765 16.5132 9.58876 16.8104 10.6354C17.1075 11.6819 17.0552 12.7969 16.6614 13.8111C16.2675 14.8252 15.5536 15.6833 14.628 16.255L13.272 13.544C13.5899 13.282 13.8191 12.9282 13.9284 12.531C14.0376 12.1338 14.0216 11.7126 13.8824 11.3249C13.7432 10.9372 13.4877 10.6019 13.1508 10.3649C12.8138 10.1278 12.4119 10.0006 12 10.0006C11.5881 10.0006 11.1862 10.1278 10.8492 10.3649C10.5123 10.6019 10.2568 10.9372 10.1176 11.3249C9.97843 11.7126 9.96237 12.1338 10.0716 12.531C10.1809 12.9282 10.4101 13.282 10.728 13.544L9.373 16.254V16.255ZM7.132 20.737C5.5757 19.87 4.27933 18.603 3.37705 17.0669C2.47477 15.5308 1.99935 13.7815 2 12C2 6.477 6.477 2 12 2C17.523 2 22 6.477 22 12C22.0006 13.7815 21.5252 15.5308 20.623 17.0669C19.7207 18.603 18.4243 19.87 16.868 20.737L15.525 18.049C16.8542 17.2743 17.8911 16.0832 18.4754 14.6601C19.0598 13.2369 19.159 11.6609 18.7577 10.1756C18.3565 8.69042 17.4771 7.37875 16.2556 6.44346C15.0341 5.50816 13.5385 5.00132 12 5.00132C10.4615 5.00132 8.96592 5.50816 7.74441 6.44346C6.52289 7.37875 5.64353 8.69042 5.24227 10.1756C4.84102 11.6609 4.94024 13.2369 5.52458 14.6601C6.10892 16.0832 7.14584 17.2743 8.475 18.049L7.132 20.737Z" fill="#5E6D84"/>
</svg>
