<svg width="24" height="24" viewBox="0 0 24 24" fill="none" xmlns="http://www.w3.org/2000/svg">
<path d="M10.3131 11.566L18.2531 3.62598L20.3741 5.74698L18.9601 7.16098L21.0811 9.28198L17.5461 12.818L15.4251 10.697L12.4351 13.687C12.9857 14.7463 13.1392 15.9675 12.868 17.1302C12.5968 18.2928 11.9187 19.32 10.9562 20.0264C9.99375 20.7327 8.81041 21.0715 7.61997 20.9815C6.42954 20.8916 5.31053 20.3789 4.46511 19.536C3.61926 18.6915 3.10392 17.5719 3.01247 16.3802C2.92101 15.1884 3.2595 14.0034 3.96659 13.0397C4.67368 12.076 5.70258 11.3976 6.86685 11.1272C8.03113 10.8568 9.25373 11.0125 10.3131 11.566ZM9.41411 17.414C9.60513 17.2295 9.75749 17.0088 9.86231 16.7648C9.96713 16.5208 10.0223 16.2583 10.0246 15.9928C10.0269 15.7272 9.97631 15.4639 9.87575 15.2181C9.77519 14.9723 9.62669 14.749 9.4389 14.5612C9.25111 14.3734 9.02781 14.2249 8.78202 14.1243C8.53622 14.0238 8.27287 13.9732 8.00731 13.9755C7.74175 13.9778 7.47931 14.033 7.2353 14.1378C6.99129 14.2426 6.7706 14.395 6.58611 14.586C6.22179 14.9632 6.0202 15.4684 6.02476 15.9928C6.02932 16.5172 6.23966 17.0188 6.61047 17.3896C6.98129 17.7604 7.48291 17.9708 8.00731 17.9753C8.5317 17.9799 9.0369 17.7783 9.41411 17.414Z" fill="#5E6D84"/>
</svg>
