<svg width="24" height="24" viewBox="0 0 24 24" fill="none" xmlns="http://www.w3.org/2000/svg">
<path d="M16.95 11.9501C17.7971 11.1037 18.4128 10.054 18.7381 8.90159C19.0634 7.74914 19.0875 6.53248 18.808 5.36807L21.303 4.29807C21.3791 4.26545 21.4621 4.25224 21.5445 4.25961C21.627 4.26698 21.7063 4.29471 21.7754 4.34031C21.8445 4.38591 21.9012 4.44795 21.9404 4.52087C21.9796 4.59378 22.0001 4.67528 22 4.75807V19.0001L15 22.0001L9 19.0001L2.697 21.7011C2.62091 21.7337 2.53792 21.7469 2.45547 21.7395C2.37301 21.7322 2.29368 21.7044 2.22459 21.6588C2.1555 21.6132 2.09881 21.5512 2.05961 21.4783C2.02041 21.4054 1.99993 21.3238 2 21.2411V7.00007L5.129 5.65907C4.90884 6.78465 4.96891 7.9471 5.30391 9.04399C5.6389 10.1409 6.23855 11.1385 7.05 11.9491L12 16.9001L16.95 11.9501ZM15.536 10.5361L12 14.0701L8.464 10.5351C7.76487 9.83575 7.2888 8.94484 7.09598 7.97497C6.90316 7.0051 7.00225 5.99983 7.38073 5.08628C7.75921 4.17272 8.40007 3.39191 9.22229 2.84256C10.0445 2.29321 11.0111 2 12 2C12.9889 2 13.9555 2.29321 14.7777 2.84256C15.5999 3.39191 16.2408 4.17272 16.6193 5.08628C16.9977 5.99983 17.0968 7.0051 16.904 7.97497C16.7112 8.94484 16.2351 9.83575 15.536 10.5351V10.5361Z" fill="#5E6D84"/>
</svg>
