<svg width="24" height="24" viewBox="0 0 24 24" fill="none" xmlns="http://www.w3.org/2000/svg">
<path d="M12 2C17.634 2 22 6.127 22 11.7C22 17.273 17.634 21.4 12 21.4C11.0221 21.4025 10.0484 21.2733 9.105 21.016C8.9278 20.9673 8.73924 20.9811 8.571 21.055L6.587 21.931C6.46713 21.984 6.33608 22.0067 6.20537 21.9972C6.07467 21.9876 5.94831 21.9461 5.8374 21.8763C5.72649 21.8065 5.63444 21.7105 5.56933 21.5967C5.50422 21.483 5.46805 21.355 5.464 21.224L5.409 19.444C5.4054 19.3358 5.37977 19.2294 5.3337 19.1314C5.28762 19.0334 5.22205 18.9458 5.141 18.874C3.195 17.135 2 14.617 2 11.7C2 6.127 6.367 2 12 2ZM5.995 14.537C5.713 14.984 6.263 15.488 6.684 15.168L9.839 12.774C9.94313 12.6954 10.07 12.6529 10.2005 12.6529C10.331 12.6529 10.4579 12.6954 10.562 12.774L12.899 14.524C13.0648 14.6483 13.2545 14.737 13.4562 14.7844C13.658 14.8317 13.8673 14.8368 14.0711 14.7992C14.2749 14.7616 14.4687 14.6822 14.6403 14.566C14.8119 14.4498 14.9575 14.2993 15.068 14.124L18.005 9.464C18.287 9.016 17.737 8.512 17.316 8.831L14.161 11.227C14.0569 11.3056 13.93 11.3481 13.7995 11.3481C13.669 11.3481 13.5421 11.3056 13.438 11.227L11.101 9.477C10.9352 9.35265 10.7455 9.264 10.5438 9.21664C10.342 9.16927 10.1327 9.16422 9.92887 9.2018C9.72508 9.23938 9.53129 9.31878 9.35971 9.43499C9.18814 9.5512 9.04251 9.7017 8.932 9.877L5.995 14.537Z" fill="#5E6D84"/>
</svg>
