<svg width="24" height="24" viewBox="0 0 24 24" fill="none" xmlns="http://www.w3.org/2000/svg">
<path fill-rule="evenodd" clip-rule="evenodd" d="M4 3C2.89543 3 2 3.89543 2 5V19C2 20.1046 2.89543 21 4 21H20C21.1046 21 22 20.1046 22 19V5C22 3.89543 21.1046 3 20 3H4ZM12.8002 14.4665C12.5885 14.9258 12.1256 15.439 11.2356 15.439C9.97967 15.439 9 14.445 9 12.6005C9 10.7057 10.0227 9.76555 11.2321 9.76555C12.1543 9.76555 12.5957 10.3146 12.8002 10.7632H12.8469V9.46053H11.4187V8.55981H12.8469V8H14.372V8.55981H15V9.46053H14.372V15.3493H12.8648V14.4665H12.8002ZM10.561 12.5933C10.561 13.555 10.9701 14.2225 11.7201 14.2225C12.4557 14.2225 12.8792 13.5766 12.8792 12.5933C12.8792 11.61 12.4629 10.9821 11.7201 10.9821C10.9629 10.9821 10.561 11.6388 10.561 12.5933ZM9.35167 16.0311H14.1782V17.1902H9.35167V16.0311Z" fill="#5E6D84"/>
</svg>
