<svg width="24" height="24" viewBox="0 0 24 24" fill="none" xmlns="http://www.w3.org/2000/svg">
<path fill-rule="evenodd" clip-rule="evenodd" d="M12 22C17.5228 22 22 17.5228 22 12C22 6.47715 17.5228 2 12 2C6.47715 2 2 6.47715 2 12C2 17.5228 6.47715 22 12 22ZM12.8002 13.4665C12.5885 13.9258 12.1256 14.439 11.2356 14.439C9.97967 14.439 9 13.445 9 11.6005C9 9.70574 10.0227 8.76555 11.2321 8.76555C12.1543 8.76555 12.5957 9.31459 12.8002 9.76316H12.8469V8.46053H11.4187V7.55981H12.8469V7H14.372V7.55981H15V8.46053H14.372V14.3493H12.8648V13.4665H12.8002ZM10.561 11.5933C10.561 12.555 10.9701 13.2225 11.7201 13.2225C12.4557 13.2225 12.8792 12.5766 12.8792 11.5933C12.8792 10.61 12.4629 9.98206 11.7201 9.98206C10.9629 9.98206 10.561 10.6388 10.561 11.5933ZM9.35167 15.0311H14.1782V16.1902H9.35167V15.0311Z" fill="#5E6D84"/>
</svg>
