<svg width="24" height="24" viewBox="0 0 24 24" fill="none" xmlns="http://www.w3.org/2000/svg">
<path d="M3 3H21C21.2652 3 21.5196 3.10536 21.7071 3.29289C21.8946 3.48043 22 3.73478 22 4V20C22 20.2652 21.8946 20.5196 21.7071 20.7071C21.5196 20.8946 21.2652 21 21 21H3C2.73478 21 2.48043 20.8946 2.29289 20.7071C2.10536 20.5196 2 20.2652 2 20V4C2 3.73478 2.10536 3.48043 2.29289 3.29289C2.48043 3.10536 2.73478 3 3 3ZM16.9 13H11V7.1C9.78865 7.35092 8.71325 8.04182 7.98151 9.03926C7.24976 10.0367 6.91359 11.2699 7.03791 12.5007C7.16224 13.7315 7.73824 14.8726 8.65467 15.7035C9.5711 16.5345 10.7629 16.9964 12 17C13.1526 16.9999 14.2697 16.6017 15.1625 15.8729C16.0554 15.144 16.6691 14.1292 16.9 13ZM16.9 11C16.7033 10.0394 16.2289 9.15778 15.5355 8.46446C14.8422 7.77114 13.9606 7.29669 13 7.1V11H16.9Z" fill="#5E6D84"/>
</svg>
