<svg width="24" height="24" viewBox="0 0 24 24" fill="none" xmlns="http://www.w3.org/2000/svg">
<path d="M11 17.938C8.98271 17.6813 7.13885 16.6661 5.84319 15.0988C4.54752 13.5314 3.89728 11.5295 4.02462 9.49997C4.15196 7.47041 5.04733 5.56549 6.52874 4.17238C8.01016 2.77927 9.96645 2.00252 12 2C14.036 1.99849 15.9961 2.77334 17.4807 4.16668C18.9653 5.56002 19.8628 7.467 19.9903 9.49904C20.1178 11.5311 19.4657 13.5353 18.1669 15.1033C16.868 16.6712 15.0203 17.685 13 17.938V20.012C16.946 20.104 20 20.735 20 21.5C20 22.328 16.418 23 12 23C7.582 23 4 22.328 4 21.5C4 20.735 7.054 20.104 11 20.012V17.938ZM12 12C12.5304 12 13.0391 11.7893 13.4142 11.4142C13.7893 11.0391 14 10.5304 14 10C14 9.46957 13.7893 8.96086 13.4142 8.58579C13.0391 8.21072 12.5304 8 12 8C11.4696 8 10.9609 8.21072 10.5858 8.58579C10.2107 8.96086 10 9.46957 10 10C10 10.5304 10.2107 11.0391 10.5858 11.4142C10.9609 11.7893 11.4696 12 12 12Z" fill="#5E6D84"/>
</svg>
