<svg width="30" height="24" viewBox="0 0 30 24" fill="none" xmlns="http://www.w3.org/2000/svg">
<path d="M9.30662 9.67049L11.2382 10.1881C11.6573 8.62373 12.6058 7.25311 13.9221 6.30973C15.2384 5.36635 16.8412 4.90857 18.4572 5.0144C20.0732 5.12023 21.6025 5.78311 22.7846 6.89011C23.9667 7.9971 24.7283 9.47971 24.9398 11.0853C25.1513 12.6909 24.7995 14.3202 23.9444 15.6955C23.0893 17.0709 21.7838 18.1071 20.2503 18.6278C18.7168 19.1485 17.0502 19.1213 15.5345 18.551C14.0187 17.9806 12.7477 16.9023 11.9378 15.4999L10.2058 16.4999C11.2469 18.3031 12.881 19.6896 14.8298 20.423C16.7785 21.1564 18.9213 21.1915 20.893 20.5222C22.8647 19.8528 24.5433 18.5206 25.6428 16.7524C26.7424 14.9841 27.1948 12.8894 26.923 10.825C26.6512 8.76063 25.672 6.85435 24.1523 5.43099C22.6325 4.00762 20.6663 3.15524 18.5885 3.01907C16.5108 2.88291 14.4501 3.47138 12.7576 4.68422C11.0651 5.89707 9.84552 7.65924 9.30662 9.67049Z" fill="#5E6D84"/>
<path d="M9.2381 13.5038L6.40968 8.60481L14.1371 10.6754L9.2381 13.5038Z" fill="#5E6D84"/>
</svg>
