<svg width="24" height="24" viewBox="0 0 24 24" fill="none" xmlns="http://www.w3.org/2000/svg">
<path d="M5.32997 15.9289C5.10983 14.9681 4.99912 13.9855 4.99997 12.9999C4.99997 7.91187 7.90297 3.56387 12 1.81787C16.097 3.56387 19 7.91187 19 12.9999C19 14.0099 18.886 14.9909 18.67 15.9289L20.69 17.7249C20.7769 17.8022 20.8342 17.9074 20.8519 18.0224C20.8696 18.1374 20.8466 18.255 20.787 18.3549L18.329 22.4509C18.2898 22.516 18.2364 22.5713 18.1727 22.6126C18.109 22.654 18.0367 22.6803 17.9614 22.6895C17.886 22.6988 17.8095 22.6907 17.7377 22.666C17.6659 22.6413 17.6007 22.6006 17.547 22.5469L15.293 20.2929C15.1055 20.1053 14.8512 19.9999 14.586 19.9999H9.41397C9.14877 19.9999 8.89446 20.1053 8.70697 20.2929L6.45297 22.5469C6.39926 22.6006 6.33403 22.6413 6.26223 22.666C6.19042 22.6907 6.11394 22.6988 6.03856 22.6895C5.96319 22.6803 5.89092 22.654 5.82722 22.6126C5.76353 22.5713 5.71009 22.516 5.67097 22.4509L3.21297 18.3559C3.15304 18.2559 3.12994 18.1381 3.14765 18.0229C3.16536 17.9077 3.22278 17.8022 3.30997 17.7249L5.32997 15.9289ZM12 12.9999C12.5304 12.9999 13.0391 12.7892 13.4142 12.4141C13.7893 12.039 14 11.5303 14 10.9999C14 10.4694 13.7893 9.96073 13.4142 9.58566C13.0391 9.21059 12.5304 8.99987 12 8.99987C11.4695 8.99987 10.9608 9.21059 10.5858 9.58566C10.2107 9.96073 9.99997 10.4694 9.99997 10.9999C9.99997 11.5303 10.2107 12.039 10.5858 12.4141C10.9608 12.7892 11.4695 12.9999 12 12.9999Z" fill="#5E6D84"/>
</svg>
