<svg width="24" height="24" viewBox="0 0 24 24" fill="none" xmlns="http://www.w3.org/2000/svg">
<path d="M4 15V8.5C4 7.30653 4.47411 6.16193 5.31802 5.31802C6.16193 4.47411 7.30653 4 8.5 4C9.69347 4 10.8381 4.47411 11.682 5.31802C12.5259 6.16193 13 7.30653 13 8.5V15.5C13 16.163 13.2634 16.7989 13.7322 17.2678C14.2011 17.7366 14.837 18 15.5 18C16.163 18 16.7989 17.7366 17.2678 17.2678C17.7366 16.7989 18 16.163 18 15.5V8.83C17.3325 8.59409 16.7699 8.1298 16.4116 7.51919C16.0534 6.90858 15.9225 6.19098 16.0422 5.49321C16.1619 4.79545 16.5244 4.16246 17.0656 3.70613C17.6069 3.2498 18.292 2.99951 19 2.99951C19.708 2.99951 20.3931 3.2498 20.9344 3.70613C21.4756 4.16246 21.8381 4.79545 21.9578 5.49321C22.0775 6.19098 21.9466 6.90858 21.5884 7.51919C21.2301 8.1298 20.6675 8.59409 20 8.83V15.5C20 16.6935 19.5259 17.8381 18.682 18.682C17.8381 19.5259 16.6935 20 15.5 20C14.3065 20 13.1619 19.5259 12.318 18.682C11.4741 17.8381 11 16.6935 11 15.5V8.5C11 7.83696 10.7366 7.20107 10.2678 6.73223C9.79893 6.26339 9.16304 6 8.5 6C7.83696 6 7.20107 6.26339 6.73223 6.73223C6.26339 7.20107 6 7.83696 6 8.5V15H9L5 20L1 15H4Z" fill="#5E6D84"/>
</svg>
