<svg width="24" height="24" viewBox="0 0 24 24" fill="none" xmlns="http://www.w3.org/2000/svg">
<path d="M13 2V3H20V5H13V19H17V21H7V19H11V5H4V3H11V2H13ZM5 6.343L7.828 9.172C8.552 9.895 9 10.895 9 12C9 14.21 7.21 16 5 16C2.79 16 1 14.21 1 12C1 10.895 1.448 9.895 2.172 9.172L5 6.343ZM19 6.343L21.828 9.172C22.552 9.895 23 10.895 23 12C23 14.21 21.21 16 19 16C16.79 16 15 14.21 15 12C15 10.895 15.448 9.895 16.172 9.172L19 6.343ZM19 9.172L17.586 10.586C17.212 10.96 17 11.46 17 12L21 12.001C21 11.461 20.788 10.96 20.414 10.586L19 9.172ZM5 9.172L3.586 10.586C3.212 10.96 3 11.46 3 12L7 12.001C7 11.461 6.788 10.96 6.414 10.586L5 9.172Z" fill="#5E6D84"/>
</svg>
