<svg width="24" height="24" viewBox="0 0 24 24" fill="none" xmlns="http://www.w3.org/2000/svg">
<path d="M9.95405 2.21021C11.303 1.92735 12.6958 1.92667 14.045 2.20821C14.1349 2.8015 14.3574 3.3669 14.6958 3.86239C15.0343 4.35788 15.4801 4.77072 16 5.07021C16.5196 5.37075 17.1002 5.55028 17.6987 5.59547C18.2973 5.64065 18.8983 5.55033 19.457 5.33121C20.3753 6.35928 21.0709 7.56625 21.5 8.87622C21.0314 9.25079 20.6532 9.72616 20.3935 10.267C20.1338 10.8078 19.9993 11.4003 20 12.0002C20 13.2642 20.586 14.3912 21.502 15.1242C21.0704 16.4331 20.3739 17.6391 19.456 18.6672C18.8974 18.4483 18.2966 18.358 17.6983 18.4032C17.0999 18.4484 16.5195 18.6278 16 18.9282C15.4805 19.2276 15.0351 19.6402 14.6968 20.1353C14.3585 20.6304 14.1361 21.1954 14.046 21.7882C12.6973 22.0717 11.3044 22.0731 9.95505 21.7922C9.86559 21.1984 9.64335 20.6324 9.30487 20.1364C8.96639 19.6403 8.52038 19.227 8.00005 18.9272C7.48041 18.6268 6.89975 18.4475 6.30124 18.4025C5.70272 18.3575 5.10176 18.448 4.54305 18.6672C3.62465 17.6389 2.92905 16.4315 2.50005 15.1212C2.96844 14.7468 3.34651 14.2718 3.60618 13.7313C3.86586 13.1909 4.00048 12.5988 4.00005 11.9992C4.00054 11.3991 3.86575 10.8066 3.60571 10.2657C3.34568 9.72488 2.96707 9.24959 2.49805 8.87522C2.92972 7.56634 3.62616 6.36032 4.54405 5.33221C5.1027 5.55117 5.70352 5.64141 6.30184 5.59623C6.90017 5.55104 7.48062 5.37159 8.00005 5.07121C8.51959 4.77181 8.96503 4.35924 9.30331 3.86412C9.64158 3.369 9.864 2.80406 9.95405 2.21121V2.21021ZM12 15.0002C12.7957 15.0002 13.5588 14.6841 14.1214 14.1215C14.684 13.5589 15 12.7959 15 12.0002C15 11.2046 14.684 10.4415 14.1214 9.87889C13.5588 9.31629 12.7957 9.00022 12 9.00022C11.2044 9.00022 10.4413 9.31629 9.87873 9.87889C9.31612 10.4415 9.00005 11.2046 9.00005 12.0002C9.00005 12.7959 9.31612 13.5589 9.87873 14.1215C10.4413 14.6841 11.2044 15.0002 12 15.0002Z" fill="#5E6D84"/>
</svg>
