<svg width="24" height="24" viewBox="0 0 24 24" fill="none" xmlns="http://www.w3.org/2000/svg">
<path d="M21.8001 14.001C21.3859 16.0237 20.3564 17.8688 18.8526 19.2834C17.3487 20.6981 15.4442 21.6131 13.4001 21.903V19.878C14.9099 19.6087 16.3106 18.9117 17.4359 17.8697C18.5612 16.8278 19.3637 15.4847 19.7481 14L21.8001 14.001ZM4.25207 14.001C4.63229 15.4685 5.42114 16.798 6.52697 17.835C7.63279 18.8719 9.01018 19.5738 10.4991 19.859V21.889C8.47499 21.5806 6.59415 20.6589 5.11019 19.2483C3.62624 17.8376 2.61054 16.0059 2.20007 14H4.25207V14.001ZM18.0001 11V13H17.0001C15.9738 13 14.9868 13.3944 14.2433 14.1017C13.4997 14.809 13.0564 15.775 13.0051 16.8L13.0001 17V18H11.0001V17C11.0001 15.9738 10.6056 14.9868 9.89835 14.2432C9.19106 13.4996 8.22503 13.0563 7.20007 13.005L7.00007 13H6.00007V11H18.0001ZM12.0001 2C17.1851 2 21.4491 5.947 21.9501 11H19.9381C19.694 9.0669 18.753 7.28927 17.2915 6.00068C15.83 4.71208 13.9485 4.00108 12.0001 4.00108C10.0516 4.00108 8.17014 4.71208 6.70865 6.00068C5.24715 7.28927 4.3061 9.0669 4.06207 11H2.04907C2.55107 5.947 6.81507 2 12.0001 2Z" fill="#5E6D84"/>
</svg>
