<svg width="24" height="24" viewBox="0 0 24 24" fill="none" xmlns="http://www.w3.org/2000/svg">
<path d="M21 7.9999C21.5304 7.9999 22.0391 8.21061 22.4142 8.58569C22.7893 8.96076 23 9.46947 23 9.9999V13.9999C23 14.5303 22.7893 15.039 22.4142 15.4141C22.0391 15.7892 21.5304 15.9999 21 15.9999H19.938C19.6942 17.9332 18.7533 19.7111 17.2917 20.9999C15.8302 22.2887 13.9486 22.9999 12 22.9999V20.9999C13.5913 20.9999 15.1174 20.3678 16.2426 19.2425C17.3679 18.1173 18 16.5912 18 14.9999V8.9999C18 7.4086 17.3679 5.88248 16.2426 4.75726C15.1174 3.63204 13.5913 2.9999 12 2.9999C10.4087 2.9999 8.88258 3.63204 7.75736 4.75726C6.63214 5.88248 6 7.4086 6 8.9999V15.9999H3C2.46957 15.9999 1.96086 15.7892 1.58579 15.4141C1.21071 15.039 1 14.5303 1 13.9999V9.9999C1 9.46947 1.21071 8.96076 1.58579 8.58569C1.96086 8.21061 2.46957 7.9999 3 7.9999H4.062C4.30603 6.0668 5.24708 4.28917 6.70857 3.00058C8.17007 1.71198 10.0516 1.00098 12 1.00098C13.9484 1.00098 15.8299 1.71198 17.2914 3.00058C18.7529 4.28917 19.694 6.0668 19.938 7.9999H21ZM7.76 15.7849L8.82 14.0889C9.77308 14.6859 10.8754 15.0017 12 14.9999C13.1246 15.0017 14.2269 14.6859 15.18 14.0889L16.24 15.7849C14.9693 16.581 13.4995 17.0022 12 16.9999C10.5005 17.0022 9.03074 16.581 7.76 15.7849Z" fill="#5E6D84"/>
</svg>
