<svg width="24" height="24" viewBox="0 0 24 24" fill="none" xmlns="http://www.w3.org/2000/svg">
<path d="M10.4781 11.632L5.96806 4.55999L7.89906 4.04199L14.8501 10.462L20.1121 9.05199C20.4964 8.94909 20.9058 9.00306 21.2503 9.20204C21.5948 9.40101 21.8462 9.72869 21.9491 10.113C22.052 10.4973 21.998 10.9067 21.799 11.2512C21.6 11.5957 21.2724 11.8471 20.8881 11.95L5.91606 15.96L5.14006 13.062L5.38106 12.997L7.84806 15.442L5.22206 16.146C5.00673 16.2037 4.77828 16.1879 4.573 16.1009C4.36772 16.0139 4.19739 15.8608 4.08906 15.666L1.46606 10.94L2.91506 10.552L5.38106 12.997L10.4781 11.631V11.632ZM4.00006 19H20.0001V21H4.00006V19Z" fill="#5E6D84"/>
</svg>
