<svg width="24" height="24" viewBox="0 0 24 24" fill="none" xmlns="http://www.w3.org/2000/svg">
<path d="M22.1621 5.65593C21.3986 5.99362 20.589 6.2154 19.7601 6.31393C20.6338 5.79136 21.2878 4.96894 21.6001 3.99993C20.7801 4.48793 19.8811 4.82993 18.9441 5.01493C18.3147 4.34151 17.4804 3.89489 16.571 3.74451C15.6616 3.59413 14.728 3.74842 13.9153 4.18338C13.1026 4.61834 12.4564 5.30961 12.0772 6.14972C11.6979 6.98983 11.6068 7.93171 11.8181 8.82893C10.1552 8.74558 8.52838 8.31345 7.04334 7.56059C5.55829 6.80773 4.24818 5.75097 3.19805 4.45893C2.82634 5.09738 2.63101 5.82315 2.63205 6.56193C2.63205 8.01193 3.37005 9.29293 4.49205 10.0429C3.82806 10.022 3.17869 9.84271 2.59805 9.51993V9.57193C2.59825 10.5376 2.93242 11.4735 3.5439 12.221C4.15538 12.9684 5.00653 13.4814 5.95305 13.6729C5.33667 13.84 4.69036 13.8646 4.06305 13.7449C4.32992 14.5762 4.85006 15.3031 5.55064 15.824C6.25123 16.3449 7.09718 16.6337 7.97005 16.6499C7.10253 17.3313 6.10923 17.8349 5.04693 18.1321C3.98464 18.4293 2.87418 18.5142 1.77905 18.3819C3.69075 19.6114 5.91615 20.264 8.18905 20.2619C15.8821 20.2619 20.0891 13.8889 20.0891 8.36193C20.0891 8.18193 20.0841 7.99993 20.0761 7.82193C20.8949 7.23009 21.6017 6.49695 22.1631 5.65693L22.1621 5.65593Z" fill="#5E6D84"/>
</svg>
