<svg width="24" height="24" viewBox="0 0 24 24" fill="none" xmlns="http://www.w3.org/2000/svg">
<path d="M2.79989 5.19984L6.99989 7.99984L11.1859 2.13984C11.2784 2.01021 11.4005 1.90454 11.5421 1.83164C11.6837 1.75874 11.8406 1.7207 11.9999 1.7207C12.1591 1.7207 12.3161 1.75874 12.4577 1.83164C12.5993 1.90454 12.7214 2.01021 12.8139 2.13984L16.9999 7.99984L21.1999 5.19984C21.3588 5.09408 21.5447 5.03604 21.7356 5.03257C21.9265 5.0291 22.1144 5.08035 22.2771 5.18026C22.4398 5.28017 22.5705 5.42456 22.6537 5.59637C22.737 5.76819 22.7693 5.96024 22.7469 6.14984L21.1039 20.1168C21.0752 20.3601 20.9583 20.5844 20.7753 20.7471C20.5922 20.9099 20.3558 20.9998 20.1109 20.9998H3.88889C3.64395 20.9998 3.40755 20.9099 3.22451 20.7471C3.04148 20.5844 2.92454 20.3601 2.89589 20.1168L1.25289 6.14884C1.23069 5.95932 1.26317 5.76741 1.34651 5.59576C1.42984 5.4241 1.56055 5.27987 1.7232 5.1801C1.88584 5.08032 2.07364 5.02916 2.26442 5.03266C2.45521 5.03616 2.641 5.09417 2.79989 5.19984ZM11.9999 14.9998C12.5303 14.9998 13.039 14.7891 13.4141 14.4141C13.7892 14.039 13.9999 13.5303 13.9999 12.9998C13.9999 12.4694 13.7892 11.9607 13.4141 11.5856C13.039 11.2106 12.5303 10.9998 11.9999 10.9998C11.4695 10.9998 10.9607 11.2106 10.5857 11.5856C10.2106 11.9607 9.99989 12.4694 9.99989 12.9998C9.99989 13.5303 10.2106 14.039 10.5857 14.4141C10.9607 14.7891 11.4695 14.9998 11.9999 14.9998Z" fill="#5E6D84"/>
</svg>
