<svg width="24" height="24" viewBox="0 0 24 24" fill="none" xmlns="http://www.w3.org/2000/svg">
<path d="M4.00011 20V14C4.00011 11.8783 4.84296 9.84344 6.34325 8.34315C7.84354 6.84285 9.87837 6 12.0001 6C14.1218 6 16.1567 6.84285 17.657 8.34315C19.1573 9.84344 20.0001 11.8783 20.0001 14V20H21.0001V22H3.00011V20H4.00011ZM6.00011 14H8.00011C8.00011 12.9391 8.42153 11.9217 9.17168 11.1716C9.92182 10.4214 10.9392 10 12.0001 10V8C10.4088 8 8.88268 8.63214 7.75746 9.75736C6.63225 10.8826 6.00011 12.4087 6.00011 14ZM11.0001 2H13.0001V5H11.0001V2ZM19.7781 4.808L21.1921 6.222L19.0721 8.343L17.6571 6.929L19.7781 4.808ZM2.80811 6.222L4.22211 4.808L6.34311 6.928L4.93011 8.344L2.80811 6.222Z" fill="#5E6D84"/>
</svg>
