<svg width="24" height="24" viewBox="0 0 24 24" fill="none" xmlns="http://www.w3.org/2000/svg">
<path d="M0.689941 6.99702C3.88903 4.40534 7.88279 2.99393 11.9999 3.00002C16.2849 3.00002 20.2199 4.49702 23.3099 6.99702L21.4249 9.33002C18.7589 7.17055 15.4308 5.99467 11.9999 6.00002C8.42994 6.00002 5.14994 7.24802 2.57494 9.33002L0.689941 6.99702ZM3.83094 10.887C6.14154 9.01502 9.02618 7.99556 11.9999 8.00002C15.0939 8.00002 17.9359 9.08102 20.1689 10.886L18.2839 13.22C16.5064 11.7802 14.2874 10.9963 11.9999 11C9.61994 11 7.43394 11.832 5.71594 13.22L3.83094 10.886V10.887ZM6.97294 14.777C8.39479 13.6249 10.1699 12.9974 11.9999 13C13.9039 13 15.6529 13.665 17.0269 14.776L15.1419 17.11C14.2531 16.3902 13.1437 15.9982 11.9999 16C10.8562 15.9982 9.74674 16.3902 8.85794 17.11L6.97294 14.776V14.777ZM10.1149 18.667C10.648 18.2347 11.3136 17.9992 11.9999 18C12.7139 18 13.3699 18.25 13.8849 18.666L11.9999 21L10.1149 18.666V18.667Z" fill="#5E6D84"/>
</svg>
