<svg width="184" height="112" viewBox="0 0 184 112" fill="none" xmlns="http://www.w3.org/2000/svg">
<path opacity="0.8" fill-rule="evenodd" clip-rule="evenodd" d="M36.905 21.3195C38.7818 15.4507 40.5284 11.7967 42.1419 10.3561C46.6103 6.36887 52.7884 8.53887 54.1019 8.84967C58.716 9.94447 57.2157 2.74007 61.1746 1.27567C63.8129 0.299871 65.9826 1.49267 67.6853 4.85407C69.1927 1.71807 71.4899 0.281671 74.5769 0.537871C79.208 0.925671 80.8286 16.3971 87.1922 13.0105C93.5572 9.62247 101.36 8.84827 104.693 13.8827C105.414 14.9719 105.69 13.2821 110.59 7.51267C115.49 1.74187 120.376 -0.800529 130.4 2.55947C134.957 4.08547 138.705 8.22247 141.648 14.9691C141.648 24.5983 148.81 30.2991 163.13 32.0673C184.615 34.7203 167.938 57.5669 141.648 64.2575C115.355 70.9495 54.8237 74.5615 21.9755 57.6551C0.0766706 46.3865 5.05316 34.2737 36.9036 21.3195H36.905Z" fill="url(#paint0_linear)"/>
<path d="M90.7745 106.412C112.652 106.412 130.387 102.351 130.387 97.3426C130.387 92.3339 112.652 88.2734 90.7745 88.2734C68.8972 88.2734 51.1621 92.3339 51.1621 97.3426C51.1621 102.351 68.8972 106.412 90.7745 106.412Z" fill="url(#paint1_linear)"/>
<path opacity="0.675" fill-rule="evenodd" clip-rule="evenodd" d="M157.651 108.658C127.867 116.047 26.2046 107.596 15.3839 103.736C10.1173 101.856 5.37009 98.3206 1.14376 93.1294C0.670734 92.549 0.37341 91.848 0.286142 91.1074C0.198873 90.3669 0.325222 89.6171 0.650588 88.9446C0.975954 88.2721 1.48706 87.7044 2.12483 87.307C2.76261 86.9097 3.50103 86.699 4.25477 86.6992H181.905C185.592 96.4124 177.508 103.732 157.651 108.658Z" fill="url(#paint2_linear)"/>
<g style="mix-blend-mode:luminosity">
<path d="M121.171 73.0369L107.625 57.3681C107.304 56.9942 106.906 56.6932 106.457 56.4854C106.009 56.2776 105.52 56.168 105.025 56.1641H75.896C74.8967 56.1641 73.947 56.6177 73.2959 57.3681L59.7493 73.0369V81.6385H121.171V73.0369Z" fill="url(#paint3_linear)"/>
<path d="M117.333 81.9553L105.476 68.3081C105.19 67.9859 104.836 67.7284 104.44 67.5533C104.044 67.3781 103.614 67.2894 103.18 67.2931H77.7403C76.867 67.2931 76.0136 67.6515 75.4446 68.3081L63.5879 81.9553V89.4509H117.333V81.9553Z" fill="url(#paint4_linear)"/>
<path d="M121.171 91.4961C121.171 92.6903 120.628 93.764 119.77 94.4837L119.596 94.6236C118.916 95.1335 118.086 95.4089 117.232 95.4076H63.6897C63.2056 95.4076 62.7428 95.3208 62.3154 95.1612L62.1031 95.0772C61.4026 94.769 60.8075 94.2666 60.3898 93.6307C59.972 92.9949 59.7496 92.2529 59.7493 91.4946V73.1309H74.6519C76.2979 73.1309 77.6242 74.4707 77.6242 76.0961V76.1171C77.6242 77.7439 78.9659 79.0557 80.612 79.0557H100.309C101.1 79.0549 101.858 78.7441 102.418 78.1912C102.978 77.6383 103.294 76.8885 103.296 76.1059C103.296 74.4735 104.624 73.1309 106.269 73.1309H121.173L121.171 91.4961Z" fill="url(#paint5_linear)"/>
</g>
<defs>
<linearGradient id="paint0_linear" x1="94.6397" y1="52.2388" x2="94.6397" y2="-11.7181" gradientUnits="userSpaceOnUse">
<stop stop-color="#DEDEDE" stop-opacity="0"/>
<stop offset="1" stop-color="#A9A9A9" stop-opacity="0.3"/>
</linearGradient>
<linearGradient id="paint1_linear" x1="86.6469" y1="106.412" x2="86.6469" y2="88.2734" gradientUnits="userSpaceOnUse">
<stop stop-color="white" stop-opacity="0"/>
<stop offset="1" stop-color="#96A1C5" stop-opacity="0.373"/>
</linearGradient>
<linearGradient id="paint2_linear" x1="91.5154" y1="111.589" x2="91.5154" y2="81.8022" gradientUnits="userSpaceOnUse">
<stop stop-color="white" stop-opacity="0"/>
<stop offset="1" stop-color="#919191" stop-opacity="0.15"/>
</linearGradient>
<linearGradient id="paint3_linear" x1="90.4603" y1="56.1641" x2="90.4603" y2="67.6148" gradientUnits="userSpaceOnUse">
<stop stop-color="#5389F5"/>
<stop offset="1" stop-color="#416FDC"/>
</linearGradient>
<linearGradient id="paint4_linear" x1="97.6327" y1="89.4509" x2="97.6327" y2="66.1151" gradientUnits="userSpaceOnUse">
<stop stop-color="#DCE9FF"/>
<stop offset="1" stop-color="#B6CFFF"/>
</linearGradient>
<linearGradient id="paint5_linear" x1="90.461" y1="73.1309" x2="90.461" y2="95.4077" gradientUnits="userSpaceOnUse">
<stop stop-color="#7CA5F7"/>
<stop offset="1" stop-color="#C4D6FC"/>
</linearGradient>
</defs>
</svg>
