<svg width="24" height="24" viewBox="0 0 24 24" fill="none" xmlns="http://www.w3.org/2000/svg">
<path d="M14 14.252V16.342C13.0949 16.022 12.1263 15.9239 11.1754 16.0558C10.2245 16.1877 9.3192 16.5459 8.53543 17.1002C7.75166 17.6545 7.11234 18.3888 6.67116 19.2414C6.22998 20.094 5.99982 21.04 6 22L4 21.999C3.99969 20.7779 4.27892 19.5729 4.8163 18.4764C5.35368 17.3799 6.13494 16.4209 7.10022 15.673C8.0655 14.9251 9.18918 14.4081 10.3852 14.1616C11.5811 13.9152 12.8177 13.9457 14 14.251V14.252ZM12 13C8.685 13 6 10.315 6 7C6 3.685 8.685 1 12 1C15.315 1 18 3.685 18 7C18 10.315 15.315 13 12 13ZM12 11C14.21 11 16 9.21 16 7C16 4.79 14.21 3 12 3C9.79 3 8 4.79 8 7C8 9.21 9.79 11 12 11ZM18 17V14H20V17H23V19H20V22H18V19H15V17H18Z" fill="#5E6D84"/>
</svg>
