<svg width="24" height="24" viewBox="0 0 24 24" fill="none" xmlns="http://www.w3.org/2000/svg">
<path fill-rule="evenodd" clip-rule="evenodd" d="M13.9771 8.39355L15.6076 8.72332C18.2447 9.25665 20.314 11.3121 20.8548 13.9229C20.9456 14.361 20.9889 14.8008 20.9997 15.2475L21 15.2595V15.2715C21 18.977 17.9703 21.9627 14.2522 21.9627H2.85352L4.06492 13.1257H12.1195C13.4797 13.1257 14.5624 12.0396 14.5624 10.7167C14.5624 10.4755 14.5229 10.2308 14.4508 9.98822L13.9771 8.39355ZM16.5396 11.1674C16.3121 13.3995 14.4134 15.1257 12.1195 15.1257H5.80946L5.14639 19.9627H14.2522C16.8804 19.9627 18.9935 17.8603 18.9999 15.2834C18.9911 14.9395 18.9579 14.6256 18.8964 14.3286C18.6152 12.9711 17.7377 11.8208 16.5396 11.1674Z" fill="#5E6D84"/>
<path fill-rule="evenodd" clip-rule="evenodd" d="M12.4522 0.658691L13.8598 1.03355C15.3549 1.43174 16.5547 2.54455 17.111 3.97366L17.1791 4.14863V4.18166C17.2427 4.37756 17.3001 4.58378 17.345 4.79503C17.4236 5.13821 17.4443 5.48175 17.4443 5.79306C17.4443 7.31267 16.772 8.68773 15.6939 9.59033C14.8717 10.279 13.8139 10.7036 12.6551 10.7036H4.63818L5.51582 4.00119H10.9594C11.8388 4.00119 12.6119 3.25444 12.6119 2.26383C12.6119 2.16706 12.6109 2.13271 12.6082 2.10692L12.4522 0.658691ZM14.4005 3.51695C13.8993 4.95442 12.5601 6.00119 10.9594 6.00119H7.27101L6.91715 8.70357H12.6551C13.3152 8.70357 13.9246 8.4634 14.4097 8.05709C15.0366 7.53234 15.4443 6.71742 15.4443 5.79306C15.4443 5.56011 15.4276 5.37959 15.3945 5.23747L15.3922 5.2273L15.39 5.21709C15.3534 5.04341 15.3003 4.86129 15.2359 4.67851L15.2165 4.62346C15.0327 4.18718 14.7497 3.80884 14.4005 3.51695Z" fill="#5E6D84"/>
</svg>
