<svg width="24" height="24" viewBox="0 0 24 24" fill="none" xmlns="http://www.w3.org/2000/svg">
<path d="M10.425 12.3338L10.425 12.3328C10.4259 10.6123 11.8468 9.25656 13.5509 9.25656C14.1 9.25656 14.6196 9.39696 15.071 9.64449C15.4347 9.8216 15.8468 9.92224 16.2866 9.92224C17.8069 9.92224 19 8.72355 19 7.29309C19 6.30282 18.4332 5.42809 17.5744 4.97823C16.3768 4.35454 15.0081 4 13.5509 4C8.80688 4 5.00065 7.75237 5 12.3332L10.425 12.3338ZM10.425 12.3338C10.4259 14.0543 11.8468 15.4101 13.5509 15.4101C14.0993 15.4101 14.619 15.2703 15.0711 15.0221C15.4353 14.845 15.847 14.7444 16.2866 14.7444C17.8069 14.7444 19 15.9431 19 17.3736C19 18.3638 18.4333 19.2384 17.5746 19.6883C16.377 20.3121 15.0082 20.6667 13.5509 20.6667C8.80688 20.6667 5.00065 16.9143 5 12.3334L10.425 12.3338Z" stroke="#5E6D84" stroke-width="2"/>
</svg>
