<svg width="24" height="24" viewBox="0 0 24 24" fill="none" xmlns="http://www.w3.org/2000/svg">
<path d="M2 4C2 3.73478 2.10536 3.48043 2.29289 3.29289C2.48043 3.10536 2.73478 3 3 3H21C21.2652 3 21.5196 3.10536 21.7071 3.29289C21.8946 3.48043 22 3.73478 22 4V9.5C21.337 9.5 20.7011 9.76339 20.2322 10.2322C19.7634 10.7011 19.5 11.337 19.5 12C19.5 12.663 19.7634 13.2989 20.2322 13.7678C20.7011 14.2366 21.337 14.5 22 14.5V20C22 20.2652 21.8946 20.5196 21.7071 20.7071C21.5196 20.8946 21.2652 21 21 21H3C2.73478 21 2.48043 20.8946 2.29289 20.7071C2.10536 20.5196 2 20.2652 2 20V4ZM8.085 19C8.18807 18.707 8.37955 18.4532 8.63301 18.2737C8.88647 18.0942 9.1894 17.9978 9.5 17.9978C9.8106 17.9978 10.1135 18.0942 10.367 18.2737C10.6204 18.4532 10.8119 18.707 10.915 19H20V16.032C19.2488 15.6597 18.6165 15.085 18.1745 14.3725C17.7325 13.6601 17.4982 12.8384 17.4982 12C17.4982 11.1616 17.7325 10.3399 18.1745 9.62746C18.6165 8.91505 19.2488 8.3403 20 7.968V5H10.915C10.8119 5.29299 10.6204 5.54677 10.367 5.72629C10.1135 5.90581 9.8106 6.00223 9.5 6.00223C9.1894 6.00223 8.88647 5.90581 8.63301 5.72629C8.37955 5.54677 8.18807 5.29299 8.085 5H4V19H8.085ZM9.5 11C9.10218 11 8.72064 10.842 8.43934 10.5607C8.15804 10.2794 8 9.89782 8 9.5C8 9.10218 8.15804 8.72064 8.43934 8.43934C8.72064 8.15804 9.10218 8 9.5 8C9.89782 8 10.2794 8.15804 10.5607 8.43934C10.842 8.72064 11 9.10218 11 9.5C11 9.89782 10.842 10.2794 10.5607 10.5607C10.2794 10.842 9.89782 11 9.5 11ZM9.5 16C9.10218 16 8.72064 15.842 8.43934 15.5607C8.15804 15.2794 8 14.8978 8 14.5C8 14.1022 8.15804 13.7206 8.43934 13.4393C8.72064 13.158 9.10218 13 9.5 13C9.89782 13 10.2794 13.158 10.5607 13.4393C10.842 13.7206 11 14.1022 11 14.5C11 14.8978 10.842 15.2794 10.5607 15.5607C10.2794 15.842 9.89782 16 9.5 16Z" fill="#5E6D84"/>
</svg>
