<svg width="24" height="24" viewBox="0 0 24 24" fill="none" xmlns="http://www.w3.org/2000/svg">
<path d="M8.64591 17.2598L12.0379 19.4218L15.4299 17.2608L17.2899 18.4458L12.0379 21.7918L6.78591 18.4458L8.64591 17.2608V17.2598ZM7.76891 8.97984L10.1619 7.42684L7.73691 5.85284L5.27991 7.36984L7.76991 8.97984H7.76891ZM9.60891 10.1698L11.9999 11.7188L14.3899 10.1718L11.9999 8.61884L9.60891 10.1708V10.1698ZM13.8399 12.9098L16.2639 14.4778L18.7139 12.9758L16.2289 11.3638L13.8399 12.9088V12.9098ZM11.9999 6.23384L16.2369 3.48584L22.4599 7.32984L18.0679 10.1728L22.4609 13.0228L16.2349 16.8418L11.9999 14.0998L7.76491 16.8398L1.53491 13.0228L5.93091 10.1718L1.53891 7.32984L7.76291 3.48684L11.9999 6.23484V6.23384ZM13.8369 7.42584L16.2299 8.97984L18.7189 7.36984L16.2629 5.85284L13.8369 7.42684V7.42584ZM10.1599 12.9098L7.76991 11.3638L5.28391 12.9768L7.73491 14.4788L10.1599 12.9098Z" fill="#5E6D84"/>
</svg>
