<svg width="24" height="24" viewBox="0 0 24 24" fill="none" xmlns="http://www.w3.org/2000/svg">
<path d="M17.8819 19.2971C16.1231 20.4126 14.0826 21.0034 11.9999 21.0001C6.60791 21.0001 2.12191 17.1201 1.18091 12.0001C1.61094 9.67078 2.78254 7.54296 4.52091 5.93407L1.39191 2.80807L2.80691 1.39307L22.6059 21.1931L21.1909 22.6071L17.8809 19.2971H17.8819ZM5.93491 7.35007C4.57591 8.58566 3.62923 10.2088 3.22291 12.0001C3.5352 13.3665 4.16217 14.6412 5.05391 15.7227C5.94565 16.8041 7.07753 17.6625 8.35946 18.2294C9.64139 18.7963 11.038 19.0561 12.438 18.9882C13.838 18.9203 15.2029 18.5264 16.4239 17.8381L14.3959 15.8101C13.5326 16.3539 12.5101 16.5882 11.4961 16.4745C10.4822 16.3608 9.53695 15.906 8.81548 15.1845C8.09401 14.463 7.63914 13.5178 7.52547 12.5038C7.4118 11.4899 7.64609 10.4674 8.18991 9.60407L5.93491 7.35007ZM12.9139 14.3281L9.67191 11.0861C9.49397 11.539 9.4521 12.034 9.55141 12.5104C9.65073 12.9868 9.88693 13.4238 10.231 13.7679C10.5751 14.1121 11.0122 14.3482 11.4886 14.4476C11.965 14.5469 12.46 14.505 12.9129 14.3271L12.9139 14.3281ZM20.8069 16.5921L19.3759 15.1621C20.0444 14.2094 20.5203 13.1353 20.7769 12.0001C20.5051 10.8098 19.9942 9.68721 19.2751 8.70056C18.5559 7.71391 17.6437 6.88379 16.5938 6.26067C15.5439 5.63755 14.3782 5.23443 13.1676 5.07583C11.9571 4.91723 10.7269 5.00645 9.55191 5.33807L7.97391 3.76007C9.22091 3.27007 10.5799 3.00007 11.9999 3.00007C17.3919 3.00007 21.8779 6.88007 22.8189 12.0001C22.5125 13.6658 21.8238 15.2376 20.8069 16.5921ZM11.7229 7.50807C12.3594 7.46873 12.997 7.56513 13.5935 7.79088C14.1899 8.01663 14.7315 8.36658 15.1825 8.81752C15.6334 9.26846 15.9833 9.81009 16.2091 10.4065C16.4348 11.003 16.5312 11.6406 16.4919 12.2771L11.7219 7.50807H11.7229Z" fill="#5E6D84"/>
</svg>
