<svg width="24" height="24" viewBox="0 0 24 24" fill="none" xmlns="http://www.w3.org/2000/svg">
<path d="M15.3961 10.58L15.4161 10.331C15.4716 9.55691 15.4993 8.78108 15.4991 8.005C15.4991 7.135 15.2051 6.519 14.5851 5.942C13.9251 5.328 13.1261 5 11.9951 5C10.8581 5 10.0371 5.335 9.48506 5.888C8.78906 6.583 8.52706 7.106 8.52706 7.988C8.52706 8.509 8.58806 9.982 8.62306 10.606C8.65153 11.1161 8.48372 11.6177 8.15406 12.008C8.20906 12.106 8.25906 12.212 8.30706 12.325C8.60706 13.096 8.50506 13.868 8.15506 14.596C7.76306 15.414 7.42406 15.989 6.74506 16.75C6.54346 16.9764 6.32911 17.191 6.10306 17.393C6.27253 17.5557 6.41199 17.7469 6.51506 17.958C7.04431 17.911 7.57749 17.9359 8.10006 18.032C8.91006 18.178 9.42406 18.466 10.2941 19.093L10.3101 19.104L10.5231 19.256C11.1421 19.696 11.4001 19.802 11.9961 19.802C12.6051 19.802 12.9061 19.681 13.5191 19.25L13.7261 19.104C14.6021 18.472 15.1331 18.176 15.9571 18.028C16.472 17.9424 16.9953 17.9175 17.5161 17.954C17.6204 17.7418 17.7616 17.5498 17.9331 17.387C17.7172 17.1924 17.5116 16.9868 17.3171 16.771C16.7353 16.1228 16.2481 15.3956 15.8701 14.611C15.5071 13.862 15.4001 13.071 15.7331 12.29C15.7731 12.192 15.8181 12.1 15.8651 12.014C15.5273 11.6153 15.3589 11.1002 15.3961 10.579V10.58ZM5.08106 10.478C5.50006 10.478 5.68106 10.783 6.30006 10.783C6.45706 10.783 6.56006 10.748 6.62606 10.717C6.61706 10.561 6.52706 8.731 6.52706 7.988C6.52706 6.3 7.24706 5.298 8.07006 4.474C8.89306 3.65 10.1751 3 11.9961 3C13.8161 3 15.0621 3.653 15.9481 4.478C16.8341 5.303 17.4991 6.408 17.4991 8.006C17.4991 9.561 17.4001 10.6 17.3911 10.722C17.4773 10.7663 17.5731 10.7886 17.6701 10.787C18.3001 10.787 18.3001 10.477 19.0001 10.477C19.6851 10.477 19.9831 11.047 19.9831 11.3C19.9831 11.921 19.1501 12.267 18.6531 12.426C18.2841 12.543 17.7221 12.717 17.5781 13.061C17.5041 13.235 17.5351 13.461 17.6701 13.739C17.6731 13.747 18.9301 16.622 21.6001 17.065C21.8351 17.1 21.9911 17.306 21.9911 17.548C21.9911 17.88 21.6211 18.165 21.2651 18.33C20.8221 18.53 20.1741 18.7 19.3131 18.835C19.2701 18.913 19.1791 19.32 19.0781 19.722C18.9431 20.264 18.2771 20.088 18.0871 20.048C17.4962 19.9236 16.8877 19.9074 16.2911 20C15.8091 20.087 15.3781 20.378 14.8961 20.726C14.1831 21.23 13.4311 21.802 11.9961 21.802C10.5601 21.802 9.85206 21.23 9.13906 20.726C8.65706 20.378 8.23406 20.089 7.74306 20C6.84506 19.837 6.17306 20.036 5.94806 20.057C5.72206 20.077 5.10606 20.301 4.95206 19.73C4.90706 19.564 4.76106 18.922 4.71706 18.835C3.86106 18.7 3.20906 18.522 2.76506 18.322C2.40006 18.157 2.03906 17.879 2.03906 17.543C2.03906 17.308 2.19706 17.103 2.43006 17.061C5.07406 16.578 6.19606 14.056 6.35206 13.731C6.48406 13.455 6.51306 13.231 6.44306 13.052C6.30006 12.709 5.73906 12.539 5.37006 12.417C5.26506 12.383 4.03406 12.044 4.03406 11.3C4.03406 11.06 4.23906 10.727 4.61606 10.57C4.76448 10.5123 4.92187 10.4812 5.08106 10.478Z" fill="#5E6D84"/>
</svg>
