<svg width="24" height="24" viewBox="0 0 24 24" fill="none" xmlns="http://www.w3.org/2000/svg">
<path d="M12 11H20.533C20.577 11.385 20.6 11.78 20.6 12.184C20.6 14.918 19.62 17.22 17.922 18.784C16.437 20.155 14.404 20.959 11.98 20.959C10.8007 20.9595 9.63279 20.7276 8.54311 20.2766C7.45344 19.8256 6.46333 19.1642 5.62936 18.3303C4.7954 17.4965 4.13394 16.5064 3.68278 15.4168C3.23162 14.3272 2.99961 13.1593 3 11.98C2.99948 10.8006 3.23139 9.63262 3.68249 8.54288C4.13359 7.45314 4.79503 6.46298 5.62901 5.62901C6.46298 4.79503 7.45314 4.13359 8.54288 3.68249C9.63262 3.23139 10.8006 2.99948 11.98 3C14.4 3 16.433 3.89 17.988 5.339L16.526 6.8C15.368 5.681 13.803 5 12 5C11.0807 5 10.1705 5.18106 9.32122 5.53284C8.47194 5.88463 7.70026 6.40024 7.05025 7.05025C6.40024 7.70026 5.88463 8.47194 5.53284 9.32122C5.18106 10.1705 5 11.0807 5 12C5 12.9193 5.18106 13.8295 5.53284 14.6788C5.88463 15.5281 6.40024 16.2997 7.05025 16.9497C7.70026 17.5998 8.47194 18.1154 9.32122 18.4672C10.1705 18.8189 11.0807 19 12 19C15.526 19 18.144 16.392 18.577 13H12V11Z" fill="#5E6D84"/>
</svg>
