<svg width="24" height="24" viewBox="0 0 24 24" fill="none" xmlns="http://www.w3.org/2000/svg">
<path d="M7.132 20.737C5.5757 19.87 4.27933 18.603 3.37705 17.0669C2.47477 15.5308 1.99935 13.7815 2 12C2 6.477 6.477 2 12 2C17.523 2 22 6.477 22 12C22.0006 13.7815 21.5252 15.5308 20.623 17.0669C19.7207 18.603 18.4243 19.87 16.868 20.737L15.972 18.946C17.503 18.0702 18.7016 16.7129 19.3814 15.0854C20.0612 13.4579 20.1841 11.6514 19.731 9.94676C19.2779 8.24217 18.2741 6.73511 16.8759 5.66C15.4776 4.58488 13.7633 4.00199 11.9995 4.00199C10.2357 4.00199 8.52136 4.58488 7.12312 5.66C5.72488 6.73511 4.72113 8.24217 4.268 9.94676C3.81488 11.6514 3.93779 13.4579 4.6176 15.0854C5.29742 16.7129 6.49603 18.0702 8.027 18.946L7.132 20.737ZM8.924 17.153C7.79634 16.4798 6.9207 15.4552 6.43143 14.2365C5.94215 13.0177 5.86627 11.6721 6.21543 10.406C6.56459 9.13997 7.31949 8.02345 8.36432 7.22776C9.40915 6.43208 10.6862 6.00117 11.9995 6.00117C13.3128 6.00117 14.5899 6.43208 15.6347 7.22776C16.6795 8.02345 17.4344 9.13997 17.7836 10.406C18.1327 11.6721 18.0568 13.0177 17.5676 14.2365C17.0783 15.4552 16.2027 16.4798 15.075 17.153L14.177 15.356C14.9008 14.8864 15.4534 14.1954 15.7523 13.3861C16.0512 12.5767 16.0804 11.6924 15.8355 10.8651C15.5907 10.0378 15.0849 9.31187 14.3937 8.79557C13.7024 8.27927 12.8628 8.00031 12 8.00031C11.1372 8.00031 10.2976 8.27927 9.60633 8.79557C8.91509 9.31187 8.40931 10.0378 8.16446 10.8651C7.91961 11.6924 7.94881 12.5767 8.24772 13.3861C8.54662 14.1954 9.0992 14.8864 9.823 15.356L8.924 17.153ZM12 16L15 22H9L12 16Z" fill="#5E6D84"/>
</svg>
