<svg width="24" height="24" viewBox="0 0 24 24" fill="none" xmlns="http://www.w3.org/2000/svg">
<path d="M10.758 11.828L18.607 3.979L20.021 5.393L18.607 6.808L21.081 9.282L19.667 10.697L17.192 8.222L15.778 9.636L17.899 11.757L16.485 13.172L14.364 11.05L12.172 13.242C12.8525 14.276 13.1254 15.5256 12.938 16.7491C12.7505 17.9727 12.1161 19.0832 11.1573 19.8661C10.1985 20.649 8.98352 21.0486 7.74721 20.9876C6.51091 20.9267 5.34112 20.4094 4.46404 19.536C3.58507 18.6603 3.06307 17.4891 2.99949 16.25C2.93592 15.0109 3.33531 13.7925 4.12005 12.8314C4.90479 11.8704 6.01881 11.2354 7.2456 11.05C8.47239 10.8646 9.72431 11.1419 10.758 11.828ZM10.121 18.121C10.4124 17.8455 10.6455 17.5143 10.8066 17.1471C10.9678 16.7799 11.0537 16.3842 11.0592 15.9832C11.0648 15.5823 10.99 15.1843 10.8391 14.8128C10.6882 14.4412 10.4644 14.1037 10.1808 13.8202C9.89731 13.5367 9.5598 13.3128 9.18828 13.162C8.81676 13.0111 8.41876 12.9362 8.01781 12.9418C7.61686 12.9474 7.2211 13.0333 6.85392 13.1944C6.48674 13.3556 6.15559 13.5887 5.88004 13.88C5.33356 14.4458 5.03118 15.2036 5.03802 15.9902C5.04485 16.7768 5.36036 17.5292 5.91658 18.0855C6.47281 18.6417 7.22524 18.9572 8.01183 18.964C8.79842 18.9709 9.55623 18.6685 10.122 18.122L10.121 18.121Z" fill="#5E6D84"/>
</svg>
