<svg width="24" height="24" viewBox="0 0 24 24" fill="none" xmlns="http://www.w3.org/2000/svg">
<path d="M13.06 8.11023L14.475 9.52523C15.1251 10.1753 15.6408 10.947 15.9926 11.7963C16.3444 12.6456 16.5255 13.5559 16.5255 14.4752C16.5255 15.3945 16.3444 16.3049 15.9926 17.1542C15.6408 18.0035 15.1251 18.7752 14.475 19.4252L14.121 19.7782C12.8082 21.0911 11.0276 21.8286 9.17101 21.8286C7.3144 21.8286 5.53383 21.0911 4.22101 19.7782C2.90819 18.4654 2.17065 16.6848 2.17065 14.8282C2.17065 12.9716 2.90819 11.1911 4.22101 9.87823L5.63601 11.2932C5.16838 11.7568 4.79692 12.3081 4.54294 12.9156C4.28896 13.5231 4.15748 14.1748 4.15604 14.8333C4.1546 15.4917 4.28323 16.144 4.53454 16.7526C4.78585 17.3612 5.1549 17.9142 5.62049 18.3798C6.08609 18.8453 6.63906 19.2144 7.24767 19.4657C7.85628 19.717 8.50853 19.8456 9.16698 19.8442C9.82543 19.8428 10.4771 19.7113 11.0846 19.4573C11.6921 19.2033 12.2435 18.8319 12.707 18.3642L13.061 18.0102C13.9984 17.0726 14.5249 15.8011 14.5249 14.4752C14.5249 13.1494 13.9984 11.8779 13.061 10.9402L11.646 9.52523L13.061 8.11123L13.06 8.11023ZM19.778 14.1212L18.364 12.7072C18.8316 12.2437 19.2031 11.6923 19.4571 11.0848C19.7111 10.4773 19.8425 9.82565 19.844 9.1672C19.8454 8.50875 19.7168 7.8565 19.4655 7.24789C19.2142 6.63928 18.8451 6.08631 18.3795 5.62071C17.9139 5.15512 17.361 4.78607 16.7524 4.53476C16.1437 4.28345 15.4915 4.15482 14.833 4.15626C14.1746 4.1577 13.5229 4.28919 12.9154 4.54316C12.3079 4.79714 11.7566 5.1686 11.293 5.63623L10.939 5.99023C10.0017 6.92787 9.47508 8.19941 9.47508 9.52523C9.47508 10.8511 10.0017 12.1226 10.939 13.0602L12.354 14.4752L10.939 15.8892L9.52501 14.4752C8.87493 13.8252 8.35925 13.0535 8.00742 12.2042C7.65559 11.3549 7.47451 10.4445 7.47451 9.52523C7.47451 8.60592 7.65559 7.69561 8.00742 6.84628C8.35925 5.99696 8.87493 5.22525 9.52501 4.57523L9.87901 4.22223C11.1918 2.90941 12.9724 2.17188 14.829 2.17188C16.6856 2.17188 18.4662 2.90941 19.779 4.22223C21.0918 5.53505 21.8294 7.31562 21.8294 9.17223C21.8294 11.0288 21.0918 12.8094 19.779 14.1222L19.778 14.1212Z" fill="#5E6D84"/>
</svg>
