<svg width="24" height="24" viewBox="0 0 24 24" fill="none" xmlns="http://www.w3.org/2000/svg">
<path d="M4 6.14277V18.9668L9.065 16.7968L15.065 19.7968L20 17.6798V4.85677L21.303 4.29877C21.3791 4.26615 21.4621 4.25294 21.5445 4.26031C21.627 4.26769 21.7063 4.29542 21.7754 4.34101C21.8445 4.38661 21.9012 4.44865 21.9404 4.52157C21.9796 4.59448 22.0001 4.67599 22 4.75877V18.9998L15 21.9998L9 18.9998L2.697 21.7008C2.62091 21.7334 2.53792 21.7466 2.45547 21.7392C2.37301 21.7319 2.29368 21.7041 2.22459 21.6585C2.1555 21.6129 2.09881 21.5509 2.05961 21.478C2.02041 21.4051 1.99993 21.3236 2 21.2408V6.99977L4 6.14277ZM16.243 11.2428L12 15.4848L7.757 11.2428C6.91799 10.4036 6.34664 9.33451 6.11521 8.17066C5.88379 7.0068 6.00266 5.80045 6.45682 4.70415C6.91098 3.60786 7.68001 2.67084 8.66668 2.0116C9.65336 1.35236 10.8134 1.00049 12 1.00049C13.1866 1.00049 14.3466 1.35236 15.3333 2.0116C16.32 2.67084 17.089 3.60786 17.5432 4.70415C17.9973 5.80045 18.1162 7.0068 17.8848 8.17066C17.6534 9.33451 17.082 10.4036 16.243 11.2428ZM12 12.6568L14.828 9.82777C15.3875 9.26841 15.7686 8.55568 15.9231 7.77972C16.0775 7.00376 15.9983 6.19944 15.6956 5.46846C15.3929 4.73749 14.8802 4.1127 14.2224 3.67312C13.5646 3.23354 12.7912 2.99892 12 2.99892C11.2088 2.99892 10.4354 3.23354 9.77759 3.67312C9.11977 4.1127 8.60708 4.73749 8.30437 5.46846C8.00165 6.19944 7.92251 7.00376 8.07695 7.77972C8.23139 8.55568 8.61247 9.26841 9.172 9.82777L12 12.6568Z" fill="#5E6D84"/>
</svg>
