<svg width="24" height="24" viewBox="0 0 24 24" fill="none" xmlns="http://www.w3.org/2000/svg">
<path d="M12 18.2942C10.8911 18.9457 9.62977 19.2927 8.34366 19.3001C7.05755 19.3074 5.79232 18.9749 4.67606 18.336C3.55979 17.6972 2.63212 16.7748 1.98693 15.6622C1.34174 14.5496 1.00195 13.2863 1.00195 12.0002C1.00195 10.7141 1.34174 9.45076 1.98693 8.33816C2.63212 7.22557 3.55979 6.30317 4.67606 5.66435C5.79232 5.02554 7.05755 4.69297 8.34366 4.70031C9.62977 4.70766 10.8911 5.05466 12 5.7062C13.1089 5.05466 14.3702 4.70766 15.6563 4.70031C16.9425 4.69297 18.2077 5.02554 19.3239 5.66435C20.4402 6.30317 21.3679 7.22557 22.0131 8.33816C22.6583 9.45076 22.9981 10.7141 22.9981 12.0002C22.9981 13.2863 22.6583 14.5496 22.0131 15.6622C21.3679 16.7748 20.4402 17.6972 19.3239 18.336C18.2077 18.9749 16.9425 19.3074 15.6563 19.3001C14.3702 19.2927 13.1089 18.9457 12 18.2942ZM13.702 16.9102C14.5067 17.2372 15.3794 17.3615 16.2434 17.272C17.1074 17.1825 17.9361 16.8821 18.6567 16.3971C19.3773 15.9122 19.9676 15.2575 20.3758 14.4908C20.784 13.7241 20.9975 12.8688 20.9975 12.0002C20.9975 11.1316 20.784 10.2763 20.3758 9.5096C19.9676 8.74289 19.3773 8.08824 18.6567 7.60327C17.9361 7.11829 17.1074 6.81785 16.2434 6.72838C15.3794 6.63892 14.5067 6.76317 13.702 7.0902C14.9255 8.43246 15.6026 10.184 15.6 12.0002C15.6 13.8902 14.881 15.6142 13.702 16.9102ZM10.298 7.0902C9.49332 6.76317 8.6206 6.63892 7.75662 6.72838C6.89265 6.81785 6.0639 7.11829 5.34331 7.60327C4.62271 8.08824 4.03236 8.74289 3.62418 9.5096C3.21601 10.2763 3.00253 11.1316 3.00253 12.0002C3.00253 12.8688 3.21601 13.7241 3.62418 14.4908C4.03236 15.2575 4.62271 15.9122 5.34331 16.3971C6.0639 16.8821 6.89265 17.1825 7.75662 17.272C8.6206 17.3615 9.49332 17.2372 10.298 16.9102C9.07446 15.5679 8.3974 13.8164 8.4 12.0002C8.4 10.1102 9.119 8.3862 10.298 7.0902ZM12 8.2052C11.4928 8.69844 11.0899 9.2885 10.815 9.94039C10.5402 10.5923 10.3991 11.2927 10.4 12.0002C10.4 13.4882 11.013 14.8322 12 15.7952C12.5072 15.302 12.9101 14.7119 13.185 14.06C13.4598 13.4081 13.6009 12.7077 13.6 12.0002C13.6009 11.2927 13.4598 10.5923 13.185 9.94039C12.9101 9.2885 12.5072 8.69844 12 8.2052Z" fill="#5E6D84"/>
</svg>
