<svg width="24" height="24" viewBox="0 0 24 24" fill="none" xmlns="http://www.w3.org/2000/svg">
<rect x="3" y="4" width="18" height="16" rx="1" stroke="#5E6D84" stroke-width="2"/>
<path d="M11.2356 15.439C12.1256 15.439 12.5885 14.9258 12.8002 14.4665H12.8648V15.3493H14.372V9.46053H15V8.55981H14.372V8H12.8469V8.55981H11.4187V9.46053H12.8469V10.7632H12.8002C12.5957 10.3146 12.1543 9.76555 11.2321 9.76555C10.0227 9.76555 9 10.7057 9 12.6005C9 14.445 9.97967 15.439 11.2356 15.439ZM11.7201 14.2225C10.9701 14.2225 10.561 13.555 10.561 12.5933C10.561 11.6388 10.9629 10.9821 11.7201 10.9821C12.4629 10.9821 12.8792 11.61 12.8792 12.5933C12.8792 13.5766 12.4557 14.2225 11.7201 14.2225ZM14.1782 16.0311H9.35167V17.1902H14.1782V16.0311Z" fill="#5E6D84"/>
</svg>
