<svg width="24" height="24" viewBox="0 0 24 24" fill="none" xmlns="http://www.w3.org/2000/svg">
<circle cx="12" cy="12" r="9" stroke="#5E6D84" stroke-width="2"/>
<path d="M11.2356 14.439C12.1256 14.439 12.5885 13.9258 12.8002 13.4665H12.8648V14.3493H14.372V8.46053H15V7.55981H14.372V7H12.8469V7.55981H11.4187V8.46053H12.8469V9.76316H12.8002C12.5957 9.31459 12.1543 8.76555 11.2321 8.76555C10.0227 8.76555 9 9.70574 9 11.6005C9 13.445 9.97967 14.439 11.2356 14.439ZM11.7201 13.2225C10.9701 13.2225 10.561 12.555 10.561 11.5933C10.561 10.6388 10.9629 9.98206 11.7201 9.98206C12.4629 9.98206 12.8792 10.61 12.8792 11.5933C12.8792 12.5766 12.4557 13.2225 11.7201 13.2225ZM14.1782 15.0311H9.35167V16.1902H14.1782V15.0311Z" fill="#5E6D84"/>
</svg>
