<svg width="24" height="24" viewBox="0 0 24 24" fill="none" xmlns="http://www.w3.org/2000/svg">
<path d="M4.9651 5.09593L8.5111 17.5059L11.5511 11.4259L17.1881 9.17093L4.9651 5.09593ZM2.8991 2.29993L21.7051 8.56793C21.8024 8.60019 21.8875 8.6616 21.9488 8.74383C22.01 8.82606 22.0445 8.92514 22.0476 9.02763C22.0506 9.13013 22.0221 9.23108 21.9658 9.31682C21.9096 9.40255 21.8283 9.46892 21.7331 9.50693L13.0001 12.9999L8.5751 21.8499C8.53007 21.94 8.45887 22.0145 8.37083 22.0634C8.28278 22.1124 8.182 22.1336 8.08169 22.1243C7.98138 22.115 7.88621 22.0756 7.80866 22.0113C7.73112 21.947 7.6748 21.8608 7.6471 21.7639L2.2601 2.91093C2.23515 2.82334 2.23459 2.7306 2.25849 2.64272C2.28239 2.55484 2.32983 2.47516 2.3957 2.41227C2.46157 2.34939 2.54337 2.30568 2.63226 2.28589C2.72116 2.26609 2.81377 2.27094 2.9001 2.29993H2.8991Z" fill="#5E6D84"/>
</svg>
