<svg width="24" height="24" viewBox="0 0 24 24" fill="none" xmlns="http://www.w3.org/2000/svg">
<path d="M3 3H21C21.2652 3 21.5196 3.10536 21.7071 3.29289C21.8946 3.48043 22 3.73478 22 4V20C22 20.2652 21.8946 20.5196 21.7071 20.7071C21.5196 20.8946 21.2652 21 21 21H3C2.73478 21 2.48043 20.8946 2.29289 20.7071C2.10536 20.5196 2 20.2652 2 20V4C2 3.73478 2.10536 3.48043 2.29289 3.29289C2.48043 3.10536 2.73478 3 3 3ZM4 5V19H20V5H4ZM16.9 13C16.6491 14.2114 15.9582 15.2867 14.9607 16.0185C13.9633 16.7502 12.7301 17.0864 11.4993 16.9621C10.2685 16.8378 9.12741 16.2618 8.29645 15.3453C7.4655 14.4289 7.00361 13.2371 7 12C7.00014 10.8474 7.3983 9.7303 8.12714 8.83747C8.85599 7.94463 9.87081 7.33088 11 7.1V13H16.9ZM16.9 11H13V7.1C13.9606 7.29669 14.8422 7.77114 15.5355 8.46446C16.2289 9.15778 16.7033 10.0394 16.9 11Z" fill="#5E6D84"/>
</svg>
