<svg width="24" height="24" viewBox="0 0 24 24" fill="none" xmlns="http://www.w3.org/2000/svg">
<path d="M5.00007 12.9999C5.00007 7.91187 7.90307 3.56387 12.0001 1.81787C16.0971 3.56387 19.0001 7.91187 19.0001 12.9999C19.0001 13.8229 18.9241 14.6259 18.7801 15.4029L20.7201 17.2349C20.8003 17.3108 20.8531 17.4111 20.8703 17.5202C20.8875 17.6293 20.868 17.741 20.8151 17.8379L18.3201 22.4129C18.2829 22.4812 18.2302 22.5399 18.1664 22.5843C18.1025 22.6286 18.0291 22.6575 17.9521 22.6686C17.8751 22.6797 17.7966 22.6726 17.7228 22.648C17.6491 22.6234 17.582 22.5819 17.5271 22.5269L15.2931 20.2929C15.1056 20.1053 14.8513 19.9999 14.5861 19.9999H9.41407C9.14888 19.9999 8.89457 20.1053 8.70707 20.2929L6.47307 22.5269C6.41813 22.5819 6.35109 22.6234 6.2773 22.648C6.20351 22.6726 6.125 22.6797 6.048 22.6686C5.97101 22.6575 5.89766 22.6286 5.83379 22.5843C5.76992 22.5399 5.71728 22.4812 5.68007 22.4129L3.18507 17.8379C3.1321 17.741 3.11269 17.6293 3.12987 17.5202C3.14706 17.4111 3.19987 17.3108 3.28007 17.2349L5.22007 15.4029C5.07707 14.6259 5.00007 13.8229 5.00007 12.9999ZM6.47607 19.6959L7.29307 18.8789C7.85555 18.3162 8.61849 18 9.41407 17.9999H14.5861C15.3817 18 16.1446 18.3162 16.7071 18.8789L17.5241 19.6959L18.5061 17.8959L17.4061 16.8559C17.163 16.6263 16.9813 16.3394 16.8777 16.0214C16.7741 15.7035 16.7519 15.3646 16.8131 15.0359C16.9371 14.3719 17.0001 13.6909 17.0001 12.9999C17.0001 9.12987 15.0051 5.69987 12.0001 4.03987C8.99507 5.69987 7.00007 9.12987 7.00007 12.9999C7.00007 13.6909 7.06307 14.3719 7.18707 15.0369C7.24826 15.3656 7.22604 15.7045 7.12245 16.0224C7.01885 16.3404 6.83719 16.6273 6.59407 16.8569L5.49407 17.8959L6.47607 19.6959ZM12.0001 12.9999C11.4696 12.9999 10.9609 12.7892 10.5859 12.4141C10.2108 12.039 10.0001 11.5303 10.0001 10.9999C10.0001 10.4694 10.2108 9.96073 10.5859 9.58566C10.9609 9.21059 11.4696 8.99987 12.0001 8.99987C12.5305 8.99987 13.0392 9.21059 13.4143 9.58566C13.7894 9.96073 14.0001 10.4694 14.0001 10.9999C14.0001 11.5303 13.7894 12.039 13.4143 12.4141C13.0392 12.7892 12.5305 12.9999 12.0001 12.9999Z" fill="#5E6D84"/>
</svg>
