<svg width="24" height="24" viewBox="0 0 24 24" fill="none" xmlns="http://www.w3.org/2000/svg">
<path d="M3.34006 16.9998C2.91733 16.2688 2.58873 15.4873 2.36206 14.6738C2.85537 14.4229 3.26965 14.0404 3.55909 13.5687C3.84852 13.097 4.00183 12.5544 4.00203 12.0009C4.00224 11.4475 3.84934 10.9048 3.56026 10.4328C3.27118 9.96088 2.85718 9.57809 2.36406 9.32682C2.8161 7.69231 3.67679 6.19977 4.86506 4.98982C5.32915 5.29155 5.86768 5.45898 6.42104 5.4736C6.9744 5.48822 7.52101 5.34945 8.00039 5.07265C8.47977 4.79586 8.87321 4.39182 9.13719 3.90526C9.40116 3.41871 9.52537 2.8686 9.49606 2.31582C11.1382 1.89145 12.8613 1.89213 14.5031 2.31782C14.474 2.87059 14.5985 3.42061 14.8626 3.90703C15.1268 4.39345 15.5204 4.7973 15.9999 5.07388C16.4794 5.35047 17.026 5.48901 17.5793 5.47417C18.1327 5.45934 18.6711 5.2917 19.1351 4.98982C19.7141 5.57982 20.2281 6.25082 20.6601 6.99982C21.0931 7.74882 21.4171 8.52982 21.6381 9.32582C21.1448 9.57672 20.7305 9.9592 20.441 10.4309C20.1516 10.9027 19.9983 11.4453 19.9981 11.9987C19.9979 12.5522 20.1508 13.0949 20.4399 13.5668C20.7289 14.0388 21.1429 14.4216 21.6361 14.6728C21.184 16.3073 20.3233 17.7999 19.1351 19.0098C18.671 18.7081 18.1324 18.5407 17.5791 18.526C17.0257 18.5114 16.4791 18.6502 15.9997 18.927C15.5204 19.2038 15.1269 19.6078 14.8629 20.0944C14.599 20.5809 14.4748 21.131 14.5041 21.6838C12.862 22.1082 11.1388 22.1075 9.49706 21.6818C9.52611 21.1291 9.40166 20.579 9.13748 20.0926C8.8733 19.6062 8.4797 19.2023 8.00023 18.9258C7.52076 18.6492 6.97412 18.5106 6.42079 18.5255C5.86746 18.5403 5.32902 18.7079 4.86506 19.0098C4.27405 18.4068 3.76166 17.7314 3.34006 16.9998ZM9.00006 17.1958C10.0657 17.8105 10.8669 18.7968 11.2501 19.9658C11.7491 20.0128 12.2501 20.0138 12.7491 19.9668C13.1325 18.7977 13.9341 17.8113 15.0001 17.1968C16.0653 16.5805 17.3206 16.3793 18.5251 16.6318C18.8151 16.2238 19.0651 15.7888 19.2731 15.3338C18.4525 14.4173 17.9992 13.23 18.0001 11.9998C18.0001 10.7398 18.4701 9.56282 19.2731 8.66582C19.0636 8.21097 18.8125 7.77646 18.5231 7.36782C17.3193 7.62013 16.0649 7.4193 15.0001 6.80382C13.9344 6.18919 13.1332 5.20281 12.7501 4.03382C12.2511 3.98682 11.7501 3.98582 11.2511 4.03282C10.8677 5.20197 10.0661 6.18838 9.00006 6.80282C7.93484 7.41914 6.67954 7.62034 5.47506 7.36782C5.18563 7.77611 4.93519 8.21069 4.72706 8.66582C5.54763 9.58238 6.00094 10.7696 6.00006 11.9998C6.00006 13.2598 5.53006 14.4368 4.72706 15.3338C4.93653 15.7887 5.1876 16.2232 5.47706 16.6318C6.68078 16.3795 7.93527 16.5803 9.00006 17.1958ZM12.0001 14.9998C11.2044 14.9998 10.4413 14.6838 9.87874 14.1211C9.31613 13.5585 9.00006 12.7955 9.00006 11.9998C9.00006 11.2042 9.31613 10.4411 9.87874 9.8785C10.4413 9.31589 11.2044 8.99982 12.0001 8.99982C12.7957 8.99982 13.5588 9.31589 14.1214 9.8785C14.684 10.4411 15.0001 11.2042 15.0001 11.9998C15.0001 12.7955 14.684 13.5585 14.1214 14.1211C13.5588 14.6838 12.7957 14.9998 12.0001 14.9998ZM12.0001 12.9998C12.2653 12.9998 12.5196 12.8945 12.7072 12.7069C12.8947 12.5194 13.0001 12.265 13.0001 11.9998C13.0001 11.7346 12.8947 11.4803 12.7072 11.2927C12.5196 11.1052 12.2653 10.9998 12.0001 10.9998C11.7348 10.9998 11.4805 11.1052 11.293 11.2927C11.1054 11.4803 11.0001 11.7346 11.0001 11.9998C11.0001 12.265 11.1054 12.5194 11.293 12.7069C11.4805 12.8945 11.7348 12.9998 12.0001 12.9998Z" fill="#5E6D84"/>
</svg>
