<svg width="24" height="24" viewBox="0 0 24 24" fill="none" xmlns="http://www.w3.org/2000/svg">
<path d="M13.12 17.0232L8.92096 14.7332C8.37276 15.3193 7.66095 15.7269 6.87803 15.9031C6.09512 16.0793 5.27731 16.0159 4.53088 15.7212C3.78445 15.4266 3.14392 14.9142 2.69253 14.2506C2.24114 13.5871 1.99976 12.8032 1.99976 12.0007C1.99976 11.1982 2.24114 10.4143 2.69253 9.75076C3.14392 9.08725 3.78445 8.57486 4.53088 8.28016C5.27731 7.98547 6.09512 7.92211 6.87803 8.09832C7.66095 8.27452 8.37276 8.68214 8.92096 9.2682L13.121 6.9782C12.8825 6.03428 12.9965 5.03579 13.4416 4.16991C13.8867 3.30402 14.6323 2.63018 15.5386 2.2747C16.445 1.91923 17.4499 1.90651 18.3649 2.23894C19.28 2.57137 20.0424 3.22612 20.5093 4.08046C20.9761 4.93481 21.1153 5.93009 20.9009 6.87975C20.6864 7.82941 20.1329 8.66824 19.3442 9.23901C18.5555 9.80979 17.5857 10.0733 16.6166 9.9802C15.6475 9.88708 14.7456 9.44371 14.08 8.7332L9.87996 11.0232C10.0412 11.6646 10.0412 12.3358 9.87996 12.9772L14.079 15.2672C14.7446 14.5567 15.6464 14.1133 16.6156 14.0202C17.5847 13.9271 18.5545 14.1906 19.3432 14.7614C20.1319 15.3322 20.6854 16.171 20.8999 17.1207C21.1143 18.0703 20.9751 19.0656 20.5083 19.9199C20.0414 20.7743 19.279 21.429 18.3639 21.7615C17.4489 22.0939 16.444 22.0812 15.5376 21.7257C14.6313 21.3702 13.8857 20.6964 13.4406 19.8305C12.9955 18.9646 12.8815 17.9661 13.12 17.0222V17.0232ZM5.99996 14.0002C6.5304 14.0002 7.0391 13.7895 7.41418 13.4144C7.78925 13.0393 7.99996 12.5306 7.99996 12.0002C7.99996 11.4698 7.78925 10.9611 7.41418 10.586C7.0391 10.2109 6.5304 10.0002 5.99996 10.0002C5.46953 10.0002 4.96082 10.2109 4.58575 10.586C4.21068 10.9611 3.99996 11.4698 3.99996 12.0002C3.99996 12.5306 4.21068 13.0393 4.58575 13.4144C4.96082 13.7895 5.46953 14.0002 5.99996 14.0002ZM17 8.0002C17.5304 8.0002 18.0391 7.78949 18.4142 7.41442C18.7892 7.03934 19 6.53064 19 6.0002C19 5.46977 18.7892 4.96106 18.4142 4.58599C18.0391 4.21092 17.5304 4.0002 17 4.0002C16.4695 4.0002 15.9608 4.21092 15.5857 4.58599C15.2107 4.96106 15 5.46977 15 6.0002C15 6.53064 15.2107 7.03934 15.5857 7.41442C15.9608 7.78949 16.4695 8.0002 17 8.0002ZM17 20.0002C17.5304 20.0002 18.0391 19.7895 18.4142 19.4144C18.7892 19.0393 19 18.5306 19 18.0002C19 17.4698 18.7892 16.9611 18.4142 16.586C18.0391 16.2109 17.5304 16.0002 17 16.0002C16.4695 16.0002 15.9608 16.2109 15.5857 16.586C15.2107 16.9611 15 17.4698 15 18.0002C15 18.5306 15.2107 19.0393 15.5857 19.4144C15.9608 19.7895 16.4695 20.0002 17 20.0002Z" fill="#5E6D84"/>
</svg>
