<svg width="24" height="24" viewBox="0 0 24 24" fill="none" xmlns="http://www.w3.org/2000/svg">
<path d="M0.689941 6.99702C3.88903 4.40534 7.88279 2.99393 11.9999 3.00002C16.2849 3.00002 20.2199 4.49702 23.3099 6.99702L22.0539 8.55302C19.2102 6.24909 15.6599 4.99446 11.9999 5.00002C8.19094 5.00002 4.69394 6.33002 1.94594 8.55302L0.689941 6.99702ZM3.83094 10.887C6.14154 9.01502 9.02618 7.99556 11.9999 8.00002C15.0939 8.00002 17.9359 9.08102 20.1689 10.886L18.9119 12.442C16.9568 10.8584 14.516 9.99603 11.9999 10C9.38194 10 6.97694 10.915 5.08794 12.442L3.83094 10.886V10.887ZM6.97294 14.777C8.39479 13.6249 10.1699 12.9974 11.9999 13C13.9039 13 15.6529 13.665 17.0269 14.776L15.7699 16.332C14.7035 15.4682 13.3723 14.9979 11.9999 15C10.5719 15 9.25994 15.499 8.22994 16.332L6.97294 14.776V14.777ZM10.1149 18.667C10.648 18.2347 11.3136 17.9992 11.9999 18C12.7139 18 13.3699 18.25 13.8849 18.666L11.9999 21L10.1149 18.666V18.667Z" fill="#5E6D84"/>
</svg>
