<svg width="24" height="24" viewBox="0 0 24 24" fill="none" xmlns="http://www.w3.org/2000/svg">
<rect x="2" y="2" width="20" height="20" rx="2" fill="#FFBB00"/>
<path d="M16.9223 13.5789C16.6354 12.1939 15.5356 11.099 14.1309 10.8149C14.1907 11.0162 14.2265 11.2292 14.2265 11.4482C14.2265 12.626 13.2642 13.5789 12.0747 13.5789H7.58577L7 17.852H13.4077C15.3921 17.852 17 16.2599 17 14.295C16.994 14.0464 16.9701 13.8097 16.9223 13.5789Z" fill="#081F42"/>
<path d="M14.7306 7.88193C14.701 7.7414 14.6596 7.60087 14.6122 7.46644V7.46033C14.3339 6.74544 13.736 6.19553 13.0018 6C13.0077 6.05499 13.0077 6.10998 13.0077 6.16497C13.0077 7.11205 12.2617 7.87582 11.3499 7.87582H8.49617L8.11133 10.8148H12.4097C12.9781 10.8148 13.4991 10.6071 13.9077 10.2649C14.4405 9.81886 14.778 9.13452 14.778 8.37075C14.778 8.19966 14.7662 8.03469 14.7306 7.88193Z" fill="#081F42"/>
</svg>
