<svg width="24" height="24" viewBox="0 0 24 24" fill="none" xmlns="http://www.w3.org/2000/svg">
<g clip-path="url(#clip0)">
<path d="M6.43242 14.086L5.73625 16.6849L3.19176 16.7388C2.43133 15.3283 2 13.7146 2 11.9998C2 10.3415 2.40328 8.77779 3.11812 7.40088H3.11867L5.38398 7.81619L6.37633 10.0679C6.16863 10.6734 6.05543 11.3234 6.05543 11.9998C6.05551 12.7338 6.18848 13.4372 6.43242 14.086Z" fill="#FBBB00"/>
<path d="M21.8254 10.1318C21.9402 10.7368 22.0001 11.3615 22.0001 12C22.0001 12.7159 21.9249 13.4143 21.7815 14.0879C21.2947 16.3802 20.0227 18.3818 18.2606 19.7983L18.26 19.7978L15.4068 19.6522L15.0029 17.1313C16.1722 16.4456 17.0859 15.3725 17.5672 14.0879H12.22V10.1318H17.6452H21.8254Z" fill="#518EF8"/>
<path d="M18.26 19.7975L18.2606 19.798C16.5469 21.1755 14.3699 21.9996 12.0001 21.9996C8.19189 21.9996 4.88092 19.8711 3.19189 16.7387L6.43256 14.0859C7.27705 16.3398 9.45123 17.9442 12.0001 17.9442C13.0957 17.9442 14.1221 17.648 15.0029 17.131L18.26 19.7975Z" fill="#28B446"/>
<path d="M18.383 4.30219L15.1434 6.95437C14.2319 6.38461 13.1544 6.05547 12 6.05547C9.39344 6.05547 7.17859 7.73348 6.37641 10.0681L3.11871 7.40109H3.11816C4.78246 4.1923 8.1352 2 12 2C14.4264 2 16.6511 2.8643 18.383 4.30219Z" fill="#F14336"/>
</g>
<defs>
<clipPath id="clip0">
<rect width="20" height="20" fill="white" transform="translate(2 2)"/>
</clipPath>
</defs>
</svg>
