<svg width="24" height="24" viewBox="0 0 24 24" fill="none" xmlns="http://www.w3.org/2000/svg">
<g clip-path="url(#clip0)">
<path d="M3.24976 3.36108C1.67809 4.99358 1.99976 6.72774 1.99976 11.9961C1.99976 16.3711 1.23643 20.7569 5.23143 21.7894C6.47893 22.1102 17.5323 22.1102 18.7781 21.7877C20.4414 21.3586 21.7948 20.0094 21.9798 17.6569C22.0056 17.3286 22.0056 6.66941 21.9789 6.33441C21.7823 3.82858 20.2398 2.38441 18.2073 2.09191C17.7414 2.02441 17.6481 2.00441 15.2581 2.00024C6.78059 2.00441 4.92226 1.62691 3.24976 3.36108Z" fill="url(#paint0_linear)"/>
<path d="M11.9983 4.61601C8.97251 4.61601 6.09917 4.34685 5.00167 7.16351C4.54834 8.32685 4.61417 9.83768 4.61417 12.001C4.61417 13.8993 4.55334 15.6835 5.00167 16.8377C6.09667 19.656 8.99334 19.386 11.9967 19.386C14.8942 19.386 17.8817 19.6877 18.9925 16.8377C19.4467 15.6627 19.38 14.1743 19.38 12.001C19.38 9.11601 19.5392 7.25351 18.14 5.85518C16.7233 4.43851 14.8075 4.61601 11.995 4.61601H11.9983ZM11.3367 5.94685C17.6483 5.93685 18.4517 5.23518 18.0083 14.9827C17.8508 18.4302 15.2258 18.0518 11.9992 18.0518C6.11584 18.0518 5.94667 17.8835 5.94667 11.9977C5.94667 6.04351 6.41334 5.95018 11.3367 5.94518V5.94685ZM15.94 7.17268C15.4508 7.17268 15.0542 7.56935 15.0542 8.05851C15.0542 8.54768 15.4508 8.94435 15.94 8.94435C16.4292 8.94435 16.8258 8.54768 16.8258 8.05851C16.8258 7.56935 16.4292 7.17268 15.94 7.17268ZM11.9983 8.20851C9.90417 8.20851 8.20667 9.90685 8.20667 12.001C8.20667 14.0952 9.90417 15.7927 11.9983 15.7927C14.0925 15.7927 15.7892 14.0952 15.7892 12.001C15.7892 9.90685 14.0925 8.20851 11.9983 8.20851ZM11.9983 9.53935C15.2525 9.53935 15.2567 14.4627 11.9983 14.4627C8.74501 14.4627 8.74001 9.53935 11.9983 9.53935Z" fill="white"/>
</g>
<defs>
<linearGradient id="paint0_linear" x1="3.28811" y1="20.7228" x2="21.876" y2="4.63522" gradientUnits="userSpaceOnUse">
<stop stop-color="#FFDD55"/>
<stop offset="0.5" stop-color="#FF543E"/>
<stop offset="1" stop-color="#C837AB"/>
</linearGradient>
<clipPath id="clip0">
<rect width="20" height="20" fill="white" transform="translate(2 2)"/>
</clipPath>
</defs>
</svg>
